SplineFontDB: 3.2
FontName: Roga
FullName: Roga
FamilyName: Roga
Weight: Book
Copyright: Copyright ( c ) 2023, Viktor Kovacs, Andras Tisza
Version: 3.000;August 6, 2023
ItalicAngle: 0
UnderlinePosition: -125
UnderlineWidth: 50
Ascent: 800
Descent: 200
InvalidEm: 0
sfntRevision: 0x00010000
LayerCount: 2
Layer: 0 1 "Back" 1
Layer: 1 1 "Fore" 0
XUID: [1021 449 -1113092160 2375]
StyleMap: 0x0000
FSType: 0
OS2Version: 4
OS2_WeightWidthSlopeOnly: 1
OS2_UseTypoMetrics: 1
CreationTime: 1545818743
ModificationTime: 1693417253
PfmFamily: 33
TTFWeight: 400
TTFWidth: 5
LineGap: 269
VLineGap: 0
Panose: 2 0 5 3 0 0 0 0 0 0
OS2TypoAscent: 700
OS2TypoAOffset: 0
OS2TypoDescent: -200
OS2TypoDOffset: 0
OS2TypoLinegap: 100
OS2WinAscent: 801
OS2WinAOffset: 0
OS2WinDescent: 80
OS2WinDOffset: 0
HheadAscent: 801
HheadAOffset: 0
HheadDescent: -80
HheadDOffset: 0
OS2SubXSize: 700
OS2SubYSize: 650
OS2SubXOff: 0
OS2SubYOff: 150
OS2SupXSize: 700
OS2SupYSize: 650
OS2SupXOff: 0
OS2SupYOff: 450
OS2StrikeYSize: 50
OS2StrikeYPos: 259
OS2CapHeight: 700
OS2XHeight: 500
OS2Vendor: 'roga'
OS2CodePages: 00000001.00000000
OS2UnicodeRanges: 80000001.02000000.00000000.00000000
MarkAttachClasses: 1
DEI: 91125
ShortTable: maxp 16
  1
  0
  122
  73
  5
  0
  0
  1
  0
  0
  0
  0
  0
  0
  0
  0
EndShort

StartChar: .notdef
Encoding: 122 -1 0
Width: 416
GlyphClass: 1
Flags: W
LayerCount: 2
Fore
SplineSet
75 667 m 1,0,-1
 341 667 l 1,1,-1
 341 0 l 1,2,-1
 75 0 l 1,3,-1
 75 667 l 1,0,-1
308 33 m 1,4,-1
 308 633 l 1,5,-1
 108 633 l 1,6,-1
 108 33 l 1,7,-1
 308 33 l 1,4,-1
EndSplineSet
Validated: 1
EndChar

StartChar: exclam
Encoding: 2 33 2
Width: 279
GlyphClass: 1
Flags: W
LayerCount: 2
Fore
SplineSet
93 688 m 1,0,-1
 186 688 l 1,1,-1
 186 192 l 1,2,-1
 93 193 l 1,3,-1
 93 688 l 1,0,-1
186 0 m 1,4,-1
 93 0 l 1,5,-1
 93 89 l 1,6,-1
 186 90 l 1,7,-1
 186 0 l 1,4,-1
EndSplineSet
Validated: 1
EndChar

StartChar: quotedbl
Encoding: 3 34 3
Width: 456
GlyphClass: 1
Flags: W
LayerCount: 2
Fore
SplineSet
283 472 m 1,0,-1
 273 688 l 1,1,-1
 363 688 l 1,2,-1
 352 472 l 1,3,-1
 283 472 l 1,0,-1
103 472 m 1,4,-1
 93 688 l 1,5,-1
 182 688 l 1,6,-1
 172 472 l 1,7,-1
 103 472 l 1,4,-1
EndSplineSet
Validated: 1
EndChar

StartChar: hyphen
Encoding: 4 45 4
Width: 430
GlyphClass: 1
Flags: W
LayerCount: 2
Fore
SplineSet
93 305 m 1,0,-1
 337 305 l 1,1,-1
 337 227 l 1,2,-1
 93 227 l 1,3,-1
 93 305 l 1,0,-1
EndSplineSet
Validated: 1
EndChar

StartChar: period
Encoding: 5 46 5
Width: 279
GlyphClass: 1
Flags: W
LayerCount: 2
Fore
SplineSet
186 0 m 1,0,-1
 93 0 l 1,1,-1
 93 89 l 1,2,-1
 186 90 l 1,3,-1
 186 0 l 1,0,-1
EndSplineSet
Validated: 1
EndChar

StartChar: colon
Encoding: 6 58 6
Width: 278
GlyphClass: 1
Flags: W
LayerCount: 2
Fore
SplineSet
185 396 m 1,0,-1
 93 396 l 1,1,-1
 93 485 l 1,2,-1
 185 486 l 1,3,-1
 185 396 l 1,0,-1
185 0 m 1,4,-1
 93 0 l 1,5,-1
 93 89 l 1,6,-1
 185 90 l 1,7,-1
 185 0 l 1,4,-1
EndSplineSet
Validated: 1
EndChar

StartChar: uni201F
Encoding: 7 8223 7
Width: 445
GlyphClass: 1
Flags: W
LayerCount: 2
Fore
SplineSet
259 800 m 1,0,-1
 352 801 l 1,1,-1
 352 710 l 1,2,-1
 306 710 l 1,3,-1
 320 669 l 1,4,-1
 351 631 l 1,5,-1
 306 631 l 1,6,-1
 274 669 l 1,7,-1
 259 710 l 1,8,-1
 259 800 l 1,0,-1
93 799 m 1,9,-1
 186 800 l 1,10,-1
 186 710 l 1,11,-1
 139 710 l 1,12,-1
 154 669 l 1,13,-1
 185 630 l 1,14,-1
 139 630 l 1,15,-1
 108 669 l 1,16,-1
 93 710 l 1,17,-1
 93 799 l 1,9,-1
EndSplineSet
Validated: 1
EndChar

StartChar: ellipsis
Encoding: 8 8230 8
Width: 666
GlyphClass: 1
Flags: W
LayerCount: 2
Fore
SplineSet
573 0 m 1,0,-1
 477 0 l 1,1,-1
 477 90 l 1,2,-1
 573 91 l 1,3,-1
 573 0 l 1,0,-1
381 0 m 1,4,-1
 285 0 l 1,5,-1
 285 90 l 1,6,-1
 381 90 l 1,7,-1
 381 0 l 1,4,-1
189 0 m 1,8,-1
 93 0 l 1,9,-1
 93 89 l 1,10,-1
 189 90 l 1,11,-1
 189 0 l 1,8,-1
EndSplineSet
Validated: 1
EndChar

StartChar: exclamdbl
Encoding: 9 8252 9
Width: 465
GlyphClass: 1
Flags: W
LayerCount: 2
Fore
SplineSet
279 688 m 1,0,-1
 372 688 l 1,1,-1
 372 192 l 1,2,-1
 279 193 l 1,3,-1
 279 688 l 1,0,-1
372 0 m 1,4,-1
 279 0 l 1,5,-1
 279 89 l 1,6,-1
 372 90 l 1,7,-1
 372 0 l 1,4,-1
93 688 m 1,8,-1
 186 688 l 1,9,-1
 186 192 l 1,10,-1
 93 193 l 1,11,-1
 93 688 l 1,8,-1
186 0 m 1,12,-1
 93 0 l 1,13,-1
 93 89 l 1,14,-1
 186 90 l 1,15,-1
 186 0 l 1,12,-1
EndSplineSet
Validated: 1
EndChar

StartChar: uni204F
Encoding: 10 8271 10
Width: 279
GlyphClass: 1
Flags: W
LayerCount: 2
Fore
SplineSet
93 89 m 1,0,-1
 186 90 l 1,1,-1
 186 0 l 1,2,-1
 139 0 l 1,3,-1
 154 -41 l 1,4,-1
 185 -80 l 1,5,-1
 139 -80 l 1,6,-1
 108 -41 l 1,7,-1
 93 0 l 1,8,-1
 93 89 l 1,0,-1
186 396 m 1,9,-1
 93 396 l 1,10,-1
 93 485 l 1,11,-1
 186 486 l 1,12,-1
 186 396 l 1,9,-1
EndSplineSet
Validated: 1
EndChar

StartChar: uni2E2E
Encoding: 11 11822 11
Width: 664
GlyphClass: 1
Flags: W
LayerCount: 2
Fore
SplineSet
395 0 m 1,0,-1
 300 0 l 1,1,-1
 300 89 l 1,2,-1
 395 90 l 1,3,-1
 395 0 l 1,0,-1
155 646 m 0,5,6
 218 698 218 698 327 698 c 0,7,8
 431 698 431 698 494 646 c 0,9,10
 558 594 558 594 571 498 c 1,11,-1
 481 492 l 1,12,13
 475 552 475 552 434 586 c 0,14,15
 394 620 394 620 326 620 c 256,16,17
 258 620 258 620 220 588 c 0,18,19
 181 556 181 556 181 500 c 0,20,21
 181 471 181 471 190 450 c 256,22,23
 199 429 199 429 214 411 c 0,24,25
 230 393 230 393 248 380 c 0,26,27
 268 365 268 365 286 353 c 0,28,29
 304 340 304 340 325 323 c 0,30,31
 344 308 344 308 359 288 c 0,32,33
 375 268 375 268 384 243 c 0,34,35
 394 217 394 217 394 184 c 1,36,-1
 300 184 l 1,37,38
 299 226 299 226 287 245 c 0,39,40
 267 278 267 278 239 299 c 2,41,-1
 200 328 l 2,42,43
 155 361 155 361 134 385 c 0,44,45
 114 409 114 409 103 438 c 0,46,47
 93 466 93 466 93 504 c 0,48,4
 93 595 93 595 155 646 c 0,5,6
EndSplineSet
Validated: 1
EndChar

StartChar: uni2E41
Encoding: 12 11841 12
Width: 279
GlyphClass: 1
Flags: W
LayerCount: 2
Fore
SplineSet
93 89 m 1,0,-1
 186 90 l 1,1,-1
 186 0 l 1,2,-1
 139 0 l 1,3,-1
 154 -41 l 1,4,-1
 185 -80 l 1,5,-1
 139 -80 l 1,6,-1
 108 -41 l 1,7,-1
 93 0 l 1,8,-1
 93 89 l 1,0,-1
EndSplineSet
Validated: 1
EndChar

StartChar: uni2E42
Encoding: 13 11842 13
Width: 445
GlyphClass: 1
Flags: W
LayerCount: 2
Fore
SplineSet
259 90 m 1,0,-1
 352 91 l 1,1,-1
 352 0 l 1,2,-1
 306 0 l 1,3,-1
 320 -41 l 1,4,-1
 351 -79 l 1,5,-1
 306 -79 l 1,6,-1
 274 -41 l 1,7,-1
 259 0 l 1,8,-1
 259 90 l 1,0,-1
93 89 m 1,9,-1
 186 90 l 1,10,-1
 186 0 l 1,11,-1
 139 0 l 1,12,-1
 154 -41 l 1,13,-1
 185 -80 l 1,14,-1
 139 -80 l 1,15,-1
 108 -41 l 1,16,-1
 93 0 l 1,17,-1
 93 89 l 1,9,-1
EndSplineSet
Validated: 1
EndChar

StartChar: u10C80
Encoding: 14 68736 14
Width: 427
GlyphClass: 1
Flags: W
LayerCount: 2
Fore
SplineSet
60 501 m 1,0,-1
 282 713 l 1,1,-1
 365 713 l 1,2,-1
 367 -1 l 1,3,-1
 279 -1 l 1,4,-1
 279 387 l 1,5,-1
 60 385 l 1,6,-1
 60 501 l 1,0,-1
279 625 m 1,7,-1
 121 458 l 1,8,-1
 279 462 l 1,9,-1
 279 625 l 1,7,-1
EndSplineSet
Validated: 1
EndChar

StartChar: u10C81
Encoding: 15 68737 15
Width: 439
GlyphClass: 1
Flags: W
LayerCount: 2
Fore
SplineSet
80 541 m 1,0,-1
 282 713 l 1,1,-1
 365 713 l 1,2,-1
 367 -1 l 1,3,-1
 279 -1 l 1,4,-1
 279 287 l 1,5,-1
 80 455 l 1,6,-1
 80 541 l 1,0,-1
279 625 m 1,7,-1
 131 498 l 1,8,-1
 279 372 l 1,9,-1
 279 625 l 1,7,-1
EndSplineSet
Validated: 1
EndChar

StartChar: u10C82
Encoding: 16 68738 16
Width: 492
GlyphClass: 1
Flags: W
LayerCount: 2
Fore
SplineSet
251 281 m 1,0,-1
 107 1 l 1,1,-1
 7 1 l 1,2,-1
 202 378 l 1,3,-1
 35 701 l 1,4,-1
 135 701 l 1,5,-1
 252 475 l 1,6,-1
 368 700 l 1,7,-1
 467 700 l 1,8,-1
 301 378 l 1,9,-1
 496 1 l 1,10,-1
 396 1 l 1,11,-1
 251 281 l 1,0,-1
EndSplineSet
Validated: 1
EndChar

StartChar: u10C83
Encoding: 17 68739 17
Width: 917
GlyphClass: 1
Flags: W
LayerCount: 2
Fore
SplineSet
420 1 m 1,0,1
 392 23 392 23 367 47 c 0,2,3
 344 68 344 68 322 91 c 1,4,-1
 174 1 l 1,5,-1
 76 102 l 1,6,-1
 123 172 l 1,7,-1
 189 103 l 1,8,-1
 268 156 l 1,9,10
 241 190 241 190 223 232 c 0,11,12
 200 287 200 287 200 358 c 0,13,14
 200 428 200 428 223 483 c 0,15,16
 241 527 241 527 268 561 c 1,17,-1
 182 613 l 1,18,-1
 117 499 l 1,19,-1
 60 561 l 1,20,21
 61 561 61 561 166 714 c 1,22,-1
 322 624 l 1,23,24
 343 647 343 647 372 674 c 0,25,26
 393 693 393 693 420 715 c 1,27,-1
 495 715 l 1,28,29
 523 693 523 693 549 669 c 0,30,31
 570 649 570 649 592 626 c 1,32,-1
 746 714 l 1,33,-1
 857 585 l 1,34,-1
 802 518 l 1,35,-1
 735 618 l 1,36,-1
 646 562 l 1,37,38
 674 527 674 527 692 483 c 0,39,40
 715 428 715 428 715 356 c 0,41,42
 715 287 715 287 694 234 c 0,43,44
 675 188 675 188 646 153 c 1,45,-1
 728 103 l 1,46,-1
 796 197 l 1,47,-1
 849 136 l 1,48,-1
 742 1 l 1,49,-1
 592 89 l 1,50,51
 571 67 571 67 549 47 c 0,52,53
 522 22 522 22 495 1 c 1,54,-1
 420 1 l 1,0,1
459 59 m 1,55,56
 524 119 524 119 570 195 c 0,57,58
 625 287 625 287 625 357 c 0,59,60
 625 428 625 428 569 523 c 0,61,62
 521 605 521 605 459 657 c 1,63,-1
 456 657 l 1,64,65
 394 602 394 602 346 523 c 0,66,67
 290 428 290 428 290 358 c 0,68,69
 290 287 290 287 347 192 c 0,70,71
 394 113 394 113 456 59 c 1,72,-1
 459 59 l 1,55,56
EndSplineSet
Validated: 1
EndChar

StartChar: u10C84
Encoding: 18 68740 18
Width: 592
GlyphClass: 1
Flags: W
LayerCount: 2
Fore
SplineSet
159 521 m 1,0,-1
 60 511 l 1,1,-1
 250 714 l 1,2,-1
 342 714 l 1,3,-1
 532 511 l 1,4,-1
 434 521 l 1,5,-1
 343 617 l 1,6,-1
 340 0 l 1,7,-1
 247 0 l 1,8,-1
 250 616 l 1,9,-1
 159 521 l 1,0,-1
EndSplineSet
Validated: 1
EndChar

StartChar: u10C85
Encoding: 19 68741 19
Width: 590
GlyphClass: 1
Flags: W
LayerCount: 2
Fore
SplineSet
263 0 m 1,0,-1
 60 205 l 1,1,-1
 159 195 l 1,2,-1
 250 100 l 1,3,-1
 250 616 l 1,4,-1
 159 521 l 1,5,-1
 60 511 l 1,6,-1
 263 714 l 1,7,-1
 327 714 l 1,8,-1
 530 511 l 1,9,-1
 432 521 l 1,10,-1
 340 617 l 1,11,-1
 340 99 l 1,12,-1
 432 195 l 1,13,-1
 530 205 l 1,14,-1
 327 0 l 1,15,-1
 263 0 l 1,0,-1
EndSplineSet
Validated: 1
EndChar

StartChar: u10C86
Encoding: 20 68742 20
Width: 593
GlyphClass: 1
Flags: W
LayerCount: 2
Fore
SplineSet
439 372 m 1,0,-1
 439 569 l 1,1,-1
 147 355 l 1,2,-1
 147 158 l 1,3,-1
 439 372 l 1,0,-1
439 653 m 1,4,-1
 439 708 l 1,5,-1
 529 708 l 1,6,-1
 529 -6 l 1,7,-1
 439 -6 l 1,8,-1
 439 289 l 1,9,-1
 147 75 l 1,10,-1
 147 -1 l 1,11,-1
 57 -1 l 1,12,-1
 57 713 l 1,13,-1
 147 713 l 1,14,-1
 147 438 l 1,15,-1
 439 653 l 1,4,-1
EndSplineSet
Validated: 1
EndChar

StartChar: u10C87
Encoding: 21 68743 21
Width: 433
GlyphClass: 1
Flags: W
LayerCount: 2
Fore
SplineSet
164 386 m 1,0,-1
 164 714 l 1,1,-1
 255 714 l 1,2,-1
 254 445 l 1,3,-1
 375 524 l 1,4,-1
 375 443 l 1,5,-1
 254 364 l 1,6,-1
 253 0 l 1,7,-1
 164 0 l 1,8,-1
 164 305 l 1,9,-1
 56 234 l 1,10,-1
 56 315 l 1,11,-1
 164 386 l 1,0,-1
EndSplineSet
Validated: 1
EndChar

StartChar: u10C88
Encoding: 22 68744 22
Width: 470
GlyphClass: 1
Flags: W
LayerCount: 2
Fore
SplineSet
315 359 m 1,0,-1
 497 0 l 1,1,-1
 395 0 l 1,2,-1
 254 290 l 1,3,-1
 111 0 l 1,4,-1
 15 0 l 1,5,-1
 160 286 l 1,6,-1
 162 291 l 1,7,-1
 35 235 l 1,8,-1
 35 309 l 1,9,-1
 199 381 l 1,10,-1
 27 714 l 1,11,-1
 127 714 l 1,12,-1
 257 454 l 1,13,-1
 387 714 l 1,14,-1
 483 714 l 1,15,-1
 356 469 l 1,16,-1
 344 444 l 1,17,-1
 459 495 l 1,18,-1
 459 422 l 1,19,-1
 315 359 l 1,0,-1
EndSplineSet
Validated: 1
EndChar

StartChar: u10C89
Encoding: 23 68745 23
Width: 446
GlyphClass: 1
Flags: W
LayerCount: 2
Fore
SplineSet
195 561 m 1,0,1
 150 608 150 608 104 616 c 0,2,3
 86 619 86 619 68 619 c 2,4,-1
 58 619 l 1,5,-1
 54 712 l 1,6,7
 131 708 131 708 156 698 c 0,8,9
 209 678 209 678 260 630 c 1,10,-1
 326 700 l 1,11,-1
 380 650 l 1,12,-1
 309 574 l 1,13,14
 374 485 374 485 374 358 c 2,15,-1
 374 354 l 2,16,17
 374 297 374 297 363 256 c 0,18,19
 355 226 355 226 335 187 c 0,20,21
 325 167 325 167 299 133 c 1,22,-1
 380 47 l 1,23,-1
 326 -3 l 1,24,-1
 253 74 l 1,25,26
 211 31 211 31 157 13 c 0,27,28
 120 0 120 0 68 -2 c 1,29,-1
 64 92 l 1,30,31
 106 92 106 92 141 107 c 0,32,33
 174 121 174 121 192 139 c 1,34,-1
 96 240 l 1,35,-1
 150 290 l 1,36,-1
 237 199 l 1,37,38
 260 241 260 241 273 271 c 0,39,40
 287 304 287 304 285 356 c 0,41,42
 283 431 283 431 239 501 c 1,43,-1
 150 407 l 5,44,-1
 96 457 l 5,45,-1
 195 561 l 1,0,1
EndSplineSet
Validated: 33
EndChar

StartChar: u10C8A
Encoding: 24 68746 24
Width: 476
GlyphClass: 1
Flags: W
LayerCount: 2
Fore
SplineSet
127 87 m 0,1,2
 160 105 160 105 185 121 c 1,3,4
 122 173 122 173 95 224 c 0,5,6
 67 278 67 278 67 355 c 0,7,8
 67 430 67 430 94 483 c 256,9,10
 121 536 121 536 184 588 c 1,11,12
 158 606 158 606 123 626 c 0,13,14
 97 641 97 641 60 660 c 1,15,-1
 119 712 l 1,16,17
 189 671 189 671 238 635 c 1,18,19
 287 671 287 671 357 712 c 1,20,-1
 416 660 l 1,21,22
 379 641 379 641 344 620 c 2,23,-1
 292 589 l 1,24,25
 355 537 355 537 381 485 c 0,26,27
 409 431 409 431 409 354 c 0,28,29
 409 278 409 278 382 225 c 256,30,31
 355 172 355 172 291 121 c 1,32,33
 316 105 316 105 359 81 c 0,34,35
 378 71 378 71 412 52 c 1,36,-1
 361 -2 l 1,37,38
 326 19 326 19 304 32 c 0,39,40
 264 57 264 57 238 75 c 1,41,42
 212 56 212 56 176 34 c 0,43,44
 150 18 150 18 115 -2 c 1,45,-1
 64 52 l 1,46,0
 100 71 100 71 127 87 c 0,1,2
300 249 m 0,48,49
 318 291 318 291 318 356 c 0,50,51
 318 418 318 418 302 456 c 0,52,53
 285 497 285 497 238 542 c 1,54,55
 192 499 192 499 175 458 c 0,56,57
 158 418 158 418 158 355 c 0,58,59
 158 293 158 293 174 253 c 0,60,61
 192 210 192 210 238 166 c 1,62,47
 283 208 283 208 300 249 c 0,48,49
EndSplineSet
Validated: 1
EndChar

StartChar: u10C8B
Encoding: 25 68747 25
Width: 448
GlyphClass: 1
Flags: W
LayerCount: 2
Fore
SplineSet
246 -78 m 1,0,-1
 64 50 l 1,1,2
 94 69 94 69 118 85 c 0,3,4
 146 103 146 103 167 119 c 2,5,-1
 220 164 l 1,6,7
 262 205 262 205 280 248 c 0,8,9
 298 289 298 289 298 340 c 0,10,11
 298 390 298 390 281 430 c 0,12,13
 263 472 263 472 220 514 c 2,14,-1
 167 560 l 2,15,16
 145 578 145 578 114 598 c 0,17,18
 92 613 92 613 60 632 c 1,19,-1
 232 774 l 1,20,-1
 281 722 l 1,21,-1
 195 651 l 1,22,23
 276 595 276 595 329 522 c 0,24,25
 388 439 388 439 388 332 c 0,26,27
 388 232 388 232 335 162 c 0,28,29
 288 99 288 99 209 35 c 1,30,-1
 285 -16 l 1,31,-1
 246 -78 l 1,0,-1
EndSplineSet
Validated: 1
EndChar

StartChar: u10C8C
Encoding: 26 68748 26
Width: 605
GlyphClass: 1
Flags: W
LayerCount: 2
Fore
SplineSet
261 0 m 1,0,1
 162 76 162 76 114 155 c 0,2,3
 60 245 60 245 60 357 c 256,4,5
 60 469 60 469 114 559 c 0,6,7
 162 638 162 638 261 714 c 1,8,-1
 344 714 l 1,9,10
 442 638 442 638 490 559 c 0,11,12
 545 469 545 469 545 357 c 256,13,14
 545 245 545 245 490 155 c 0,15,16
 442 76 442 76 344 0 c 1,17,-1
 261 0 l 1,0,1
396 542 m 1,18,19
 378 568 378 568 353 597 c 0,20,21
 332 621 332 621 304 650 c 1,22,-1
 301 650 l 1,23,24
 272 621 272 621 249 593 c 0,25,26
 227 568 227 568 209 543 c 1,27,-1
 302 418 l 1,28,-1
 396 542 l 1,18,19
256 355 m 1,29,-1
 170 471 l 1,30,31
 151 419 151 419 151 357 c 0,32,33
 151 294 151 294 170 242 c 1,34,-1
 256 355 l 1,29,-1
454 357 m 0,36,37
 454 418 454 418 435 470 c 1,38,-1
 349 355 l 1,39,-1
 435 243 l 1,40,35
 454 295 454 295 454 357 c 0,36,37
304 64 m 1,41,42
 361 119 361 119 395 167 c 1,43,-1
 302 291 l 1,44,-1
 210 167 l 1,45,46
 244 119 244 119 301 64 c 1,47,-1
 304 64 l 1,41,42
EndSplineSet
Validated: 1
EndChar

StartChar: u10C8D
Encoding: 27 68749 27
Width: 574
GlyphClass: 1
Flags: W
LayerCount: 2
Fore
SplineSet
213 -1 m 1,0,-1
 343 400 l 1,1,-1
 284 578 l 1,2,-1
 95 1 l 1,3,-1
 2 1 l 1,4,-1
 237 715 l 1,5,-1
 332 716 l 1,6,-1
 567 1 l 1,7,-1
 474 1 l 1,8,-1
 378 292 l 1,9,-1
 284 -1 l 1,10,-1
 213 -1 l 1,0,-1
EndSplineSet
Validated: 1
EndChar

StartChar: u10C8E
Encoding: 28 68750 28
Width: 465
GlyphClass: 1
Flags: W
LayerCount: 2
Fore
SplineSet
274 330 m 1,0,-1
 405 433 l 1,1,-1
 405 346 l 1,2,-1
 273 243 l 1,3,-1
 271 0 l 1,4,-1
 181 0 l 1,5,-1
 181 177 l 1,6,-1
 60 92 l 1,7,-1
 60 179 l 1,8,-1
 181 267 l 1,9,-1
 181 397 l 1,10,-1
 60 312 l 1,11,-1
 60 389 l 1,12,-1
 181 477 l 1,13,-1
 181 714 l 1,14,-1
 271 714 l 1,15,-1
 272 550 l 1,16,-1
 405 643 l 1,17,-1
 405 556 l 1,18,-1
 273 462 l 1,19,-1
 274 330 l 1,0,-1
EndSplineSet
Validated: 1
EndChar

StartChar: u10C8F
Encoding: 29 68751 29
Width: 550
GlyphClass: 1
Flags: W
LayerCount: 2
Fore
SplineSet
275 247 m 1,0,-1
 367 357 l 1,1,-1
 275 470 l 1,2,-1
 183 357 l 1,3,-1
 275 247 l 1,0,-1
215 529 m 1,4,-1
 67 714 l 1,5,-1
 175 714 l 1,6,-1
 275 599 l 1,7,-1
 375 714 l 1,8,-1
 482 714 l 1,9,-1
 334 539 l 1,10,-1
 477 358 l 1,11,-1
 334 183 l 1,12,-1
 490 0 l 1,13,-1
 372 0 l 1,14,-1
 275 123 l 1,15,-1
 167 0 l 1,16,-1
 60 0 l 1,17,-1
 215 183 l 1,18,-1
 73 357 l 1,19,-1
 215 529 l 1,4,-1
EndSplineSet
Validated: 1
EndChar

StartChar: u10C90
Encoding: 30 68752 30
Width: 465
GlyphClass: 1
Flags: W
LayerCount: 2
Fore
SplineSet
271 538 m 1,0,-1
 271 0 l 1,1,-1
 181 0 l 1,2,-1
 181 478 l 1,3,-1
 60 397 l 1,4,-1
 60 483 l 1,5,-1
 181 564 l 1,6,-1
 181 714 l 1,7,-1
 271 714 l 1,8,-1
 271 624 l 1,9,-1
 407 715 l 1,10,-1
 407 629 l 1,11,-1
 271 538 l 1,0,-1
EndSplineSet
Validated: 1
EndChar

StartChar: u10C91
Encoding: 31 68753 31
Width: 465
GlyphClass: 1
Flags: W
LayerCount: 2
Fore
SplineSet
386 701 m 1,0,-1
 404 714 l 1,1,-1
 404 713 l 1,2,-1
 407 715 l 1,3,-1
 407 629 l 1,4,-1
 273 539 l 1,5,-1
 271 0 l 1,6,-1
 181 0 l 1,7,-1
 181 478 l 1,8,-1
 60 397 l 1,9,-1
 60 483 l 1,10,-1
 386 701 l 1,0,-1
EndSplineSet
Validated: 1
EndChar

StartChar: u10C92
Encoding: 32 68754 32
Width: 391
GlyphClass: 1
Flags: W
LayerCount: 2
Fore
SplineSet
60 538 m 1,0,-1
 252 713 l 1,1,-1
 331 714 l 1,2,-1
 329 0 l 1,3,-1
 239 0 l 1,4,-1
 239 604 l 1,5,-1
 60 447 l 1,6,-1
 60 538 l 1,0,-1
EndSplineSet
Validated: 1
EndChar

StartChar: u10C93
Encoding: 33 68755 33
Width: 547
GlyphClass: 1
Flags: W
LayerCount: 2
Fore
SplineSet
380 359 m 1,0,-1
 262 608 l 1,1,-1
 156 361 l 1,2,-1
 272 112 l 1,3,-1
 380 359 l 1,0,-1
223 7 m 1,4,-1
 57 365 l 1,5,-1
 220 721 l 1,6,-1
 314 721 l 1,7,-1
 474 359 l 1,8,-1
 317 7 l 1,9,-1
 223 7 l 1,4,-1
EndSplineSet
Validated: 1
EndChar

StartChar: u10C94
Encoding: 34 68756 34
Width: 594
GlyphClass: 1
Flags: W
LayerCount: 2
Fore
SplineSet
350 0 m 1,0,-1
 263 1 l 1,1,-1
 257 575 l 1,2,-1
 144 413 l 1,3,-1
 59 413 l 1,4,-1
 260 715 l 1,5,-1
 348 714 l 1,6,-1
 348 139 l 1,7,-1
 479 322 l 1,8,-1
 564 323 l 1,9,-1
 350 0 l 1,0,-1
EndSplineSet
Validated: 1
EndChar

StartChar: u10C95
Encoding: 35 68757 35
Width: 588
GlyphClass: 1
Flags: W
LayerCount: 2
Fore
SplineSet
7 1 m 1,0,-1
 9 5 l 1,1,-1
 -33 92 l 1,2,-1
 -35 191 l 1,3,-1
 52 89 l 1,4,-1
 202 378 l 1,5,-1
 79 616 l 1,6,-1
 -8 514 l 1,7,-1
 -6 613 l 1,8,-1
 36 699 l 1,9,-1
 35 701 l 1,10,-1
 37 701 l 1,11,-1
 38 703 l 1,12,-1
 39 701 l 1,13,-1
 135 701 l 1,14,-1
 252 475 l 1,15,-1
 368 700 l 1,16,-1
 464 700 l 1,17,-1
 466 703 l 1,18,-1
 510 613 l 1,19,-1
 512 514 l 1,20,-1
 424 617 l 1,21,-1
 301 378 l 1,22,-1
 452 87 l 1,23,-1
 541 191 l 1,24,-1
 539 92 l 1,25,-1
 495 2 l 1,26,-1
 496 1 l 1,27,-1
 396 1 l 1,28,-1
 251 281 l 1,29,-1
 107 1 l 1,30,-1
 7 1 l 1,0,-1
EndSplineSet
Validated: 1
EndChar

StartChar: u10C96
Encoding: 36 68758 36
Width: 564
GlyphClass: 1
Flags: W
LayerCount: 2
Fore
SplineSet
349 358 m 1,0,-1
 227 -1 l 1,1,-1
 161 -1 l 1,2,-1
 315 449 l 1,3,-1
 273 578 l 1,4,-1
 84 1 l 1,5,-1
 -9 1 l 1,6,-1
 226 715 l 1,7,-1
 228 715 l 1,8,-1
 228 716 l 1,9,-1
 321 716 l 1,10,-1
 556 1 l 1,11,-1
 463 1 l 1,12,-1
 418 151 l 1,13,-1
 369 1 l 1,14,-1
 303 1 l 1,15,-1
 383 242 l 1,16,-1
 349 358 l 1,0,-1
EndSplineSet
Validated: 1
EndChar

StartChar: u10C97
Encoding: 37 68759 37
Width: 584
GlyphClass: 1
Flags: W
LayerCount: 2
Fore
SplineSet
245 0 m 1,0,1
 161 76 161 76 118 148 c 0,2,3
 60 245 60 245 60 357 c 256,4,5
 60 469 60 469 118 565 c 0,6,7
 162 638 162 638 245 714 c 1,8,-1
 319 714 l 1,9,10
 411 638 411 638 459 567 c 0,11,12
 524 469 524 469 524 356 c 0,13,14
 524 245 524 245 460 149 c 0,15,16
 412 76 412 76 319 0 c 1,17,-1
 245 0 l 1,0,1
368 541 m 1,18,19
 338 591 338 591 284 650 c 1,20,-1
 282 650 l 1,21,22
 204 565 204 565 184.5 524 c 128,-1,23
 165 483 165 483 155.5 443 c 128,-1,24
 146 403 146 403 143 356.5 c 128,-1,25
 140 310 140 310 165 243 c 1,26,-1
 368 541 l 1,18,19
284 64 m 1,27,28
 374 164 374 164 402 215 c 128,-1,29
 430 266 430 266 433.5 330.5 c 128,-1,30
 437 395 437 395 411 477 c 1,31,-1
 201 167 l 1,32,33
 216 142 216 142 239 114 c 0,34,35
 257 91 257 91 282 64 c 1,36,-1
 284 64 l 1,27,28
EndSplineSet
Validated: 33
EndChar

StartChar: u10C98
Encoding: 38 68760 38
Width: 455
GlyphClass: 1
Flags: W
LayerCount: 2
Fore
SplineSet
311 711 m 1,0,-1
 313 712 l 1,1,-1
 358 712 l 1,2,-1
 358 711 l 1,3,-1
 398 711 l 1,4,-1
 398 0 l 1,5,-1
 310 0 l 1,6,-1
 310 4 l 1,7,-1
 62 133 l 1,8,-1
 58 131 l 1,9,-1
 59 211 l 1,10,-1
 275 354 l 1,11,-1
 62 465 l 1,12,-1
 60 463 l 1,13,-1
 60 546 l 1,14,-1
 310 710 l 1,15,-1
 310 711 l 1,16,-1
 311 711 l 1,0,-1
310 629 m 1,17,-1
 127 509 l 1,18,-1
 310 414 l 1,19,-1
 310 629 l 1,17,-1
310 296 m 1,20,-1
 127 176 l 1,21,-1
 310 81 l 1,22,-1
 310 296 l 1,20,-1
EndSplineSet
Validated: 1
EndChar

StartChar: u10C99
Encoding: 39 68761 39
Width: 410
GlyphClass: 1
Flags: W
LayerCount: 2
Fore
SplineSet
60 77 m 1,0,-1
 70 77 l 2,1,2
 255 77 255 77 255 360 c 0,3,4
 255 502 255 502 208 571 c 0,5,6
 165 635 165 635 82 635 c 2,7,-1
 60 635 l 1,8,-1
 60 717 l 1,9,10
 138 714 138 714 203 679 c 0,11,12
 288 634 288 634 322 548 c 0,13,14
 350 478 350 478 350 371 c 0,15,16
 350 181 350 181 262 83 c 0,17,18
 186 -2 186 -2 60 1 c 1,19,-1
 60 77 l 1,0,-1
EndSplineSet
Validated: 33
EndChar

StartChar: u10C9A
Encoding: 40 68762 40
Width: 500
GlyphClass: 1
Flags: W
LayerCount: 2
Fore
SplineSet
362 90 m 0,1,2
 287 0 287 0 151 0 c 2,3,-1
 60 0 l 1,4,-1
 60 714 l 1,5,-1
 167 714 l 2,6,7
 251 714 251 714 313 674 c 0,8,9
 374 634 374 634 406 559 c 0,10,11
 440 479 440 479 440 361 c 0,12,0
 440 183 440 183 362 90 c 0,1,2
298 573 m 0,14,15
 255 637 255 637 172 637 c 2,16,-1
 150 637 l 1,17,-1
 150 77 l 1,18,-1
 160 77 l 2,19,20
 345 77 345 77 345 361 c 0,21,13
 345 504 345 504 298 573 c 0,14,15
EndSplineSet
Validated: 1
EndChar

StartChar: u10C9B
Encoding: 41 68763 41
Width: 469
GlyphClass: 1
Flags: W
LayerCount: 2
Fore
SplineSet
171 75 m 2,0,1
 319 92 319 92 319 368 c 0,2,3
 319 506 319 506 282 572 c 0,4,5
 248 634 248 634 182 634 c 2,6,-1
 162 634 l 1,7,-1
 60 539 l 1,8,-1
 61 623 l 1,9,10
 124 683 124 683 162 715 c 1,11,12
 231 714 231 714 287 679 c 0,13,14
 361 634 361 634 388 545 c 0,15,16
 409 479 409 479 409 375 c 0,17,18
 409 181 409 181 337 84 c 0,19,20
 273 -2 273 -2 162 -1 c 1,21,22
 124 31 124 31 61 89 c 1,23,-1
 61 169 l 1,24,-1
 162 74 l 1,25,-1
 171 75 l 2,0,1
EndSplineSet
Validated: 33
EndChar

StartChar: u10C9C
Encoding: 42 68764 42
Width: 532
GlyphClass: 1
Flags: W
LayerCount: 2
Fore
SplineSet
472 359 m 0,1,2
 473 355 473 355 472 355 c 1,3,4
 472 298 472 298 461 259 c 0,5,6
 453 227 453 227 435 197 c 0,7,8
 366 75 366 75 263 2 c 1,9,-1
 193 0 l 1,10,-1
 60 198 l 1,11,-1
 180 354 l 1,12,-1
 233 286 l 1,13,-1
 154 190 l 1,14,15
 155 178 155 178 183 148 c 1,16,17
 233 77 233 77 258 107 c 1,18,19
 275 117 275 117 315.5 177 c 128,-1,20
 356 237 356 237 363 257 c 0,21,22
 384 304 384 304 377 372 c 1,23,24
 374 462 374 462 331 533 c 1,25,26
 267 614 267 614 233 625 c 0,27,28
 216 631 216 631 187 627 c 0,29,30
 182 627 182 627 190 717 c 1,31,32
 250 717 250 717 272 709 c 0,33,34
 315 695 315 695 398 593 c 1,35,0
 472 491 472 491 472 359 c 0,1,2
EndSplineSet
Validated: 33
EndChar

StartChar: u10C9D
Encoding: 43 68765 43
Width: 380
GlyphClass: 1
Flags: W
LayerCount: 2
Fore
SplineSet
326 536 m 1,0,-1
 166 219 l 1,1,-1
 330 60 l 1,2,-1
 265 -2 l 1,3,-1
 60 216 l 1,4,-1
 220 536 l 1,5,-1
 88 661 l 1,6,-1
 145 713 l 1,7,-1
 326 536 l 1,0,-1
EndSplineSet
Validated: 1
EndChar

StartChar: u10C9E
Encoding: 44 68766 44
Width: 484
GlyphClass: 1
Flags: W
LayerCount: 2
Fore
SplineSet
150 325 m 1,0,-1
 150 0 l 1,1,-1
 60 0 l 1,2,-1
 60 713 l 1,3,-1
 150 713 l 1,4,-1
 150 411 l 1,5,-1
 338 708 l 1,6,-1
 412 708 l 1,7,-1
 206 372 l 1,8,-1
 421 2 l 1,9,-1
 347 2 l 1,10,-1
 150 325 l 1,0,-1
EndSplineSet
Validated: 1
EndChar

StartChar: u10C9F
Encoding: 45 68767 45
Width: 576
GlyphClass: 1
Flags: W
LayerCount: 2
Fore
SplineSet
303 584 m 1,0,-1
 301 587 l 1,1,2
 281 609 281 609 248 620 c 0,3,4
 228 627 228 627 187 627 c 0,5,6
 182 627 182 627 190 717 c 1,7,8
 253 717 253 717 270 710 c 0,9,10
 334 684 334 684 379 638 c 1,11,-1
 474 713 l 1,12,-1
 516 660 l 1,13,-1
 421 585 l 1,14,15
 472 481 472 481 472 359 c 2,16,-1
 472 355 l 2,17,18
 472 298 472 298 461 257 c 0,19,20
 455 234 455 234 437 200 c 0,21,22
 427 181 427 181 408 145 c 1,23,-1
 506 67 l 1,24,-1
 464 14 l 1,25,-1
 367 91 l 1,26,27
 353 76 353 76 353 76 c 2,28,-1
 263 2 l 1,29,-1
 193 0 l 1,30,-1
 60 198 l 1,31,-1
 180 354 l 1,32,-1
 233 286 l 1,33,-1
 154 190 l 1,34,35
 155 178 155 178 177 155 c 0,36,37
 234 94 234 94 284 123 c 0,38,39
 294 129 294 129 301 137 c 1,40,-1
 240 180 l 1,41,-1
 282 233 l 1,42,-1
 336 195 l 1,43,44
 356 242 356 242 362 256 c 0,45,46
 382 301 382 301 377 373 c 0,47,48
 372 453 372 453 341 528 c 1,49,-1
 292 494 l 1,50,-1
 250 547 l 1,51,-1
 303 584 l 1,0,-1
EndSplineSet
Validated: 33
EndChar

StartChar: u10CA0
Encoding: 46 68768 46
Width: 503
GlyphClass: 1
Flags: W
LayerCount: 2
Fore
SplineSet
353 442 m 1,0,-1
 57 234 l 1,1,-1
 57 314 l 1,2,-1
 353 526 l 1,3,-1
 353 622 l 1,4,-1
 57 414 l 1,5,-1
 57 495 l 1,6,-1
 367 714 l 1,7,-1
 443 714 l 1,8,-1
 443 0 l 1,9,-1
 353 0 l 1,10,-1
 353 262 l 1,11,-1
 57 54 l 1,12,-1
 57 134 l 1,13,-1
 353 345 l 1,14,-1
 353 442 l 1,0,-1
EndSplineSet
Validated: 1
EndChar

StartChar: u10CA1
Encoding: 47 68769 47
Width: 823
GlyphClass: 1
Flags: W
LayerCount: 2
Fore
SplineSet
417 59 m 1,0,1
 482 119 482 119 528 195 c 0,2,3
 583 287 583 287 583 357 c 0,4,5
 583 428 583 428 527 523 c 0,6,7
 479 605 479 605 417 657 c 1,8,-1
 414 657 l 1,9,10
 352 602 352 602 304 523 c 0,11,12
 248 428 248 428 248 358 c 0,13,14
 248 287 248 287 305 192 c 0,15,16
 352 113 352 113 414 59 c 1,17,-1
 417 59 l 1,0,1
179 0 m 1,18,-1
 121 39 l 1,19,-1
 216 147 l 1,20,21
 180 207 180 207 167 271 c 1,22,-1
 121 203 l 1,23,-1
 29 203 l 1,24,-1
 159 366 l 1,25,26
 161 425 161 425 175 467 c 0,27,28
 189 510 189 510 214 549 c 1,29,-1
 94 479 l 1,30,-1
 26 480 l 1,31,-1
 413 714 l 1,32,-1
 809 478 l 1,33,-1
 741 479 l 1,34,-1
 620 551 l 1,35,36
 646 511 646 511 660 468 c 0,37,38
 675 420 675 420 676 366 c 1,39,-1
 806 203 l 1,40,-1
 713 203 l 1,41,-1
 668 271 l 1,42,43
 661 238 661 238 647 205 c 0,44,45
 636 177 636 177 619 147 c 1,46,-1
 713 39 l 1,47,-1
 650 0 l 1,48,-1
 562 90 l 1,49,-1
 443 0 l 1,50,-1
 378 0 l 1,51,-1
 268 90 l 1,52,-1
 179 0 l 1,18,-1
EndSplineSet
Validated: 1
EndChar

StartChar: u10CA2
Encoding: 48 68770 48
Width: 593
GlyphClass: 1
Flags: W
LayerCount: 2
Fore
SplineSet
439 409 m 1,0,-1
 147 195 l 1,1,-1
 147 -1 l 1,2,-1
 57 -1 l 1,3,-1
 57 713 l 1,4,-1
 147 713 l 1,5,-1
 147 278 l 1,6,-1
 439 493 l 1,7,-1
 439 708 l 1,8,-1
 529 708 l 1,9,-1
 529 -6 l 1,10,-1
 439 -6 l 1,11,-1
 439 409 l 1,0,-1
EndSplineSet
Validated: 1
EndChar

StartChar: u10CA3
Encoding: 49 68771 49
Width: 413
GlyphClass: 1
Flags: W
LayerCount: 2
Fore
SplineSet
60 212 m 1,0,-1
 60 291 l 1,1,-1
 353 502 l 1,2,-1
 353 423 l 1,3,-1
 60 212 l 1,0,-1
EndSplineSet
Validated: 1
EndChar

StartChar: u10CA4
Encoding: 50 68772 50
Width: 574
GlyphClass: 1
Flags: W
LayerCount: 2
Fore
SplineSet
239 715 m 1,0,-1
 239 716 l 1,1,-1
 332 716 l 1,2,-1
 567 1 l 1,3,-1
 474 1 l 1,4,-1
 284 578 l 1,5,-1
 95 1 l 1,6,-1
 2 1 l 1,7,-1
 237 715 l 1,8,-1
 239 715 l 1,0,-1
EndSplineSet
Validated: 1
EndChar

StartChar: u10CA5
Encoding: 51 68773 51
Width: 208
GlyphClass: 1
Flags: W
LayerCount: 2
Fore
SplineSet
60 0 m 1,0,-1
 60 714 l 1,1,-1
 148 714 l 1,2,-1
 148 0 l 1,3,-1
 60 0 l 1,0,-1
EndSplineSet
Validated: 1
EndChar

StartChar: u10CA6
Encoding: 52 68774 52
Width: 394
GlyphClass: 1
Flags: W
LayerCount: 2
Fore
SplineSet
244 714 m 1,0,-1
 334 714 l 1,1,-1
 334 0 l 1,2,-1
 244 0 l 1,3,-1
 244 388 l 1,4,-1
 50 712 l 1,5,-1
 126 712 l 1,6,-1
 244 511 l 1,7,-1
 244 714 l 1,0,-1
EndSplineSet
Validated: 1
EndChar

StartChar: u10CA7
Encoding: 53 68775 53
Width: 713
GlyphClass: 1
Flags: W
LayerCount: 2
Fore
SplineSet
60 497 m 1,0,-1
 190 714 l 1,1,-1
 314 516 l 1,2,-1
 313 717 l 1,3,-1
 403 717 l 1,4,-1
 404 516 l 1,5,-1
 526 714 l 1,6,-1
 653 495 l 1,7,-1
 586 495 l 1,8,-1
 526 600 l 1,9,-1
 403 427 l 1,10,-1
 407 3 l 1,11,-1
 317 3 l 1,12,-1
 313 427 l 1,13,-1
 191 595 l 1,14,-1
 127 497 l 1,15,-1
 60 497 l 1,0,-1
EndSplineSet
Validated: 1
EndChar

StartChar: u10CA8
Encoding: 54 68776 54
Width: 492
GlyphClass: 1
Flags: W
LayerCount: 2
Fore
SplineSet
178 0 m 1,0,-1
 288 215 l 1,1,-1
 253 282 l 1,2,-1
 109 2 l 1,3,-1
 9 2 l 1,4,-1
 204 379 l 1,5,-1
 37 702 l 1,6,-1
 137 702 l 1,7,-1
 186 607 l 1,8,-1
 234 701 l 1,9,-1
 310 701 l 1,10,-1
 224 533 l 1,11,-1
 254 476 l 1,12,-1
 370 701 l 1,13,-1
 469 701 l 1,14,-1
 303 379 l 1,15,-1
 498 2 l 1,16,-1
 398 2 l 1,17,-1
 326 141 l 1,18,-1
 254 0 l 1,19,-1
 178 0 l 1,0,-1
EndSplineSet
Validated: 1
EndChar

StartChar: u10CA9
Encoding: 55 68777 55
Width: 492
GlyphClass: 1
Flags: W
LayerCount: 2
Fore
SplineSet
330 634 m 1,0,-1
 227 579 l 1,1,-1
 227 660 l 1,2,-1
 303 700 l 1,3,-1
 372 701 l 1,4,-1
 372 700 l 1,5,-1
 463 700 l 1,6,-1
 297 378 l 1,7,-1
 492 1 l 1,8,-1
 303 0 l 1,9,-1
 227 40 l 1,10,-1
 227 121 l 1,11,-1
 374 55 l 1,12,-1
 247 281 l 1,13,-1
 103 1 l 1,14,-1
 3 1 l 1,15,-1
 198 378 l 1,16,-1
 31 701 l 1,17,-1
 131 701 l 1,18,-1
 248 475 l 1,19,-1
 330 634 l 1,0,-1
EndSplineSet
Validated: 1
EndChar

StartChar: u10CAA
Encoding: 56 68778 56
Width: 602
GlyphClass: 1
Flags: W
LayerCount: 2
Fore
SplineSet
148 610 m 1,0,-1
 148 98 l 1,1,-1
 301 282 l 1,2,-1
 450 104 l 1,3,-1
 450 604 l 1,4,-1
 301 426 l 1,5,-1
 148 610 l 1,0,-1
66 0 m 1,6,-1
 60 0 l 1,7,-1
 60 714 l 1,8,-1
 148 714 l 1,9,-1
 148 712 l 1,10,-1
 151 712 l 1,11,-1
 302 532 l 1,12,-1
 450 708 l 1,13,-1
 450 714 l 1,14,-1
 538 714 l 1,15,-1
 538 712 l 1,16,-1
 541 712 l 1,17,-1
 538 708 l 1,18,-1
 538 0 l 1,19,-1
 541 -4 l 1,20,-1
 453 -4 l 1,21,-1
 302 176 l 1,22,-1
 151 -4 l 1,23,-1
 63 -4 l 1,24,-1
 66 0 l 1,6,-1
EndSplineSet
Validated: 1
EndChar

StartChar: u10CAB
Encoding: 57 68779 57
Width: 601
GlyphClass: 1
Flags: W
LayerCount: 2
Fore
SplineSet
543 9 m 1,0,-1
 547 2 l 1,1,-1
 543 2 l 1,2,-1
 543 0 l 1,3,-1
 455 0 l 1,4,-1
 455 9 l 1,5,-1
 302 280 l 1,6,-1
 151 11 l 1,7,-1
 151 0 l 1,8,-1
 60 0 l 1,9,-1
 60 2 l 1,10,-1
 59 2 l 1,11,-1
 60 4 l 1,12,-1
 60 708 l 1,13,-1
 59 710 l 1,14,-1
 60 710 l 1,15,-1
 60 714 l 1,16,-1
 150 714 l 1,17,-1
 150 705 l 1,18,-1
 302 436 l 1,19,-1
 455 708 l 1,20,-1
 455 718 l 1,21,-1
 543 718 l 1,22,-1
 543 9 l 1,0,-1
150 549 m 1,23,-1
 151 166 l 1,24,-1
 258 357 l 1,25,-1
 150 549 l 1,23,-1
455 165 m 1,26,-1
 455 553 l 1,27,-1
 346 358 l 1,28,-1
 455 165 l 1,26,-1
EndSplineSet
Validated: 1
EndChar

StartChar: u10CAC
Encoding: 58 68780 58
Width: 688
GlyphClass: 1
Flags: W
LayerCount: 2
Fore
SplineSet
578 674 m 1,0,-1
 622 614 l 1,1,-1
 518 500 l 1,2,3
 565 410 565 410 566 327 c 0,4,5
 566 258 566 258 535 197 c 1,6,-1
 628 71 l 1,7,-1
 576 2 l 1,8,-1
 482 125 l 1,9,10
 446 63 446 63 393 2 c 1,11,-1
 288 2 l 1,12,13
 290 6 290 6 292 6 c 1,14,-1
 285 6 l 1,15,16
 234 65 234 65 199 121 c 1,17,-1
 108 3 l 1,18,-1
 65 68 l 1,19,-1
 160 192 l 2,20,21
 159 194 159 194 157 199 c 0,22,23
 140 231 140 231 137 240 c 2,24,-1
 134 246 l 2,25,26
 123 273 123 273 120 290 c 2,27,-1
 118 299 l 2,28,29
 114 324 114 324 114 341 c 0,30,31
 114 366 114 366 123 401 c 0,32,33
 130 429 130 429 140 450 c 0,34,35
 143 457 143 457 159 490 c 1,36,-1
 60 623 l 1,37,-1
 108 676 l 1,38,-1
 198 568 l 1,39,40
 226 616 226 616 290 691 c 1,41,-1
 389 691 l 1,42,43
 387 687 387 687 386 687 c 1,44,-1
 387 687 l 1,45,46
 439 628 439 628 474 568 c 1,47,-1
 578 674 l 1,0,-1
436 214 m 0,49,50
 472 276 472 276 472 338 c 256,51,52
 472 400 472 400 436 466 c 0,53,54
 404 524 404 524 337 598 c 1,55,56
 272 526 272 526 241 468 c 0,57,58
 207 403 207 403 207 342 c 0,59,60
 207 279 207 279 242 217 c 0,61,62
 273 164 273 164 340 92 c 1,63,48
 406 164 406 164 436 214 c 0,49,50
EndSplineSet
Validated: 1
EndChar

StartChar: u10CAD
Encoding: 59 68781 59
Width: 462
GlyphClass: 1
Flags: W
LayerCount: 2
Fore
SplineSet
59 710 m 1,0,-1
 147 710 l 1,1,-1
 147 342 l 1,2,-1
 407 489 l 1,3,-1
 407 2 l 1,4,-1
 319 2 l 1,5,-1
 319 369 l 1,6,-1
 59 221 l 1,7,-1
 59 710 l 1,0,-1
EndSplineSet
Validated: 1
EndChar

StartChar: u10CAE
Encoding: 60 68782 60
Width: 602
GlyphClass: 1
Flags: W
LayerCount: 2
Fore
SplineSet
450 604 m 1,0,-1
 301 426 l 1,1,-1
 148 610 l 1,2,-1
 148 -4 l 1,3,-1
 60 -4 l 1,4,-1
 60 714 l 1,5,-1
 148 714 l 1,6,-1
 148 712 l 1,7,-1
 151 712 l 1,8,-1
 302 532 l 1,9,-1
 450 708 l 1,10,-1
 450 714 l 1,11,-1
 538 714 l 1,12,-1
 538 712 l 1,13,-1
 538 708 l 1,14,-1
 536 -3 l 1,15,-1
 450 -4 l 1,16,-1
 450 604 l 1,0,-1
EndSplineSet
Validated: 1
EndChar

StartChar: u10CAF
Encoding: 61 68783 61
Width: 593
GlyphClass: 1
Flags: W
LayerCount: 2
Fore
SplineSet
147 128 m 1,0,-1
 439 342 l 1,1,-1
 439 426 l 1,2,-1
 147 214 l 1,3,-1
 147 128 l 1,0,-1
439 510 m 1,4,-1
 439 599 l 1,5,-1
 147 385 l 1,6,-1
 147 296 l 1,7,-1
 439 510 l 1,4,-1
439 683 m 1,8,-1
 439 708 l 1,9,-1
 529 708 l 1,10,-1
 529 -6 l 1,11,-1
 439 -6 l 1,12,-1
 439 259 l 1,13,-1
 147 45 l 1,14,-1
 147 -1 l 1,15,-1
 57 -1 l 1,16,-1
 57 713 l 1,17,-1
 147 713 l 1,18,-1
 147 468 l 1,19,-1
 439 683 l 1,8,-1
EndSplineSet
Validated: 1
EndChar

StartChar: u10CB0
Encoding: 62 68784 62
Width: 580
GlyphClass: 1
Flags: W
LayerCount: 2
Fore
SplineSet
335 447 m 1,0,-1
 335 0 l 1,1,-1
 245 0 l 1,2,-1
 245 449 l 1,3,-1
 50 714 l 1,4,-1
 131 714 l 1,5,-1
 245 557 l 1,6,-1
 245 714 l 1,7,-1
 335 714 l 1,8,-1
 335 552 l 1,9,-1
 450 714 l 1,10,-1
 528 714 l 1,11,-1
 528 712 l 1,12,-1
 335 447 l 1,0,-1
EndSplineSet
Validated: 1
EndChar

StartChar: u10CB1
Encoding: 63 68785 63
Width: 712
GlyphClass: 1
Flags: W
LayerCount: 2
Fore
SplineSet
525 708 m 1,1,-1
 652 538 l 1,2,-1
 585 538 l 1,3,-1
 525 623 l 1,4,-1
 403 487 l 1,5,-1
 399 340 l 1,6,-1
 525 490 l 1,7,-1
 652 319 l 1,8,-1
 585 319 l 1,9,-1
 525 400 l 1,10,-1
 398 236 l 1,11,-1
 399 89 l 1,12,-1
 525 279 l 1,13,-1
 652 93 l 1,14,-1
 585 93 l 1,15,-1
 525 174 l 1,16,-1
 402 0 l 1,17,-1
 313 0 l 1,18,-1
 191 169 l 1,19,-1
 127 95 l 1,20,-1
 60 95 l 1,21,-1
 190 279 l 1,22,-1
 314 89 l 1,23,-1
 313 236 l 1,24,-1
 191 395 l 1,25,-1
 127 321 l 1,26,-1
 60 321 l 1,27,-1
 190 490 l 1,28,-1
 314 340 l 1,29,-1
 313 487 l 1,30,-1
 191 618 l 1,31,-1
 127 540 l 1,32,-1
 60 540 l 1,33,-1
 190 708 l 1,34,-1
 314 558 l 1,35,-1
 313 714 l 1,36,-1
 403 714 l 1,37,38
 402 561 402 561 404 561 c 0,39,0
 464 634 464 634 525 708 c 1,1,-1
EndSplineSet
Validated: 33
EndChar

StartChar: u10CB2
Encoding: 64 68786 64
Width: 643
GlyphClass: 1
Flags: W
LayerCount: 2
Fore
SplineSet
447 233 m 0,1,2
 490 318 490 318 490 362 c 0,3,4
 490 403 490 403 454 478 c 0,5,6
 414 562 414 562 365 617 c 1,7,-1
 366 103 l 1,8,0
 411 161 411 161 447 233 c 0,1,2
276 617 m 1,9,10
 228 560 228 560 189 479 c 0,11,12
 153 402 153 402 153 363 c 0,13,14
 153 321 153 321 196 234 c 0,15,16
 232 161 232 161 275 105 c 1,17,-1
 276 617 l 1,9,10
283 2 m 1,18,19
 167 100 167 100 114 183 c 0,20,21
 60 269 60 269 60 363 c 0,22,23
 60 454 60 454 112 539 c 0,24,25
 163 622 163 622 274 716 c 1,26,-1
 364 716 l 1,27,28
 479 621 479 621 531 536 c 0,29,30
 583 450 583 450 583 356 c 0,31,32
 583 263 583 263 532 180 c 256,33,34
 481 97 481 97 365 2 c 1,35,-1
 283 2 l 1,18,19
EndSplineSet
Validated: 1
EndChar

StartChar: u10CC0
Encoding: 65 68800 65
Width: 426
GlyphClass: 1
Flags: W
LayerCount: 2
Fore
SplineSet
364 0 m 1,0,-1
 274 0 l 1,1,-1
 273 285 l 1,2,-1
 60 284 l 1,3,-1
 60 355 l 1,4,-1
 276 572 l 1,5,-1
 366 572 l 1,6,-1
 364 0 l 1,0,-1
275 497 m 1,7,-1
 130 358 l 1,8,-1
 275 359 l 1,9,-1
 275 497 l 1,7,-1
EndSplineSet
Validated: 1
EndChar

StartChar: u10CC1
Encoding: 66 68801 66
Width: 439
GlyphClass: 1
Flags: W
LayerCount: 2
Fore
SplineSet
377 0 m 1,0,-1
 287 0 l 1,1,-1
 286 271 l 1,2,-1
 60 379 l 1,3,-1
 60 435 l 1,4,-1
 289 575 l 1,5,-1
 379 575 l 1,6,-1
 377 0 l 1,0,-1
288 516 m 1,7,-1
 122 415 l 1,8,-1
 288 330 l 1,9,-1
 288 516 l 1,7,-1
EndSplineSet
Validated: 1
EndChar

StartChar: u10CC2
Encoding: 67 68802 67
Width: 492
GlyphClass: 1
Flags: W
LayerCount: 2
Fore
SplineSet
395 0 m 1,0,-1
 244 252 l 1,1,-1
 91 0 l 1,2,-1
 5 0 l 1,3,-1
 194 302 l 1,4,-1
 17 575 l 1,5,-1
 107 575 l 1,6,-1
 247 351 l 1,7,-1
 387 575 l 1,8,-1
 473 575 l 1,9,-1
 297 303 l 1,10,-1
 487 0 l 1,11,-1
 395 0 l 1,0,-1
EndSplineSet
Validated: 1
EndChar

StartChar: u10CC3
Encoding: 68 68803 68
Width: 917
GlyphClass: 1
Flags: W
LayerCount: 2
Fore
SplineSet
420 1 m 1,0,1
 392 21 392 21 367 43 c 0,2,3
 344 62 344 62 322 83 c 1,4,-1
 174 1 l 1,5,-1
 76 92 l 1,6,-1
 123 137 l 1,7,-1
 189 85 l 1,8,-1
 278 125 l 1,9,10
 241 158 241 158 223 191 c 0,11,12
 200 232 200 232 200 286 c 0,13,14
 200 339 200 339 223 382 c 0,15,16
 241 416 241 416 278 449 c 1,17,-1
 182 488 l 1,18,-1
 107 401 l 1,19,-1
 60 441 l 1,20,21
 61 441 61 441 166 571 c 1,22,-1
 322 489 l 1,23,24
 343 510 343 510 372 534 c 0,25,26
 393 552 393 552 420 572 c 1,27,-1
 495 572 l 1,28,29
 523 552 523 552 549 530 c 0,30,31
 570 512 570 512 592 490 c 1,32,-1
 746 571 l 1,33,-1
 857 459 l 1,34,-1
 812 416 l 1,35,-1
 735 492 l 1,36,-1
 636 449 l 1,37,38
 674 415 674 415 692 381 c 0,39,40
 715 339 715 339 715 285 c 0,41,42
 715 232 715 232 694 192 c 0,43,44
 675 157 675 157 636 123 c 1,45,-1
 728 85 l 1,46,-1
 796 156 l 1,47,-1
 849 118 l 1,48,-1
 742 1 l 1,49,-1
 592 82 l 1,50,51
 571 62 571 62 549 43 c 0,52,53
 522 20 522 20 495 1 c 1,54,-1
 420 1 l 1,0,1
459 59 m 1,55,56
 524 105 524 105 570 162 c 0,57,58
 625 232 625 232 625 286 c 256,59,60
 625 340 625 340 569 412 c 0,61,62
 521 474 521 474 459 514 c 1,63,-1
 456 514 l 1,64,65
 394 472 394 472 346 412 c 0,66,67
 290 340 290 340 290 286 c 256,68,69
 290 232 290 232 347 160 c 0,70,71
 394 100 394 100 456 59 c 1,72,-1
 459 59 l 1,55,56
EndSplineSet
Validated: 1
EndChar

StartChar: u10CC4
Encoding: 69 68804 69
Width: 592
GlyphClass: 1
Flags: W
LayerCount: 2
Fore
SplineSet
149 413 m 1,0,-1
 60 413 l 1,1,-1
 250 575 l 1,2,-1
 342 575 l 1,3,-1
 532 413 l 1,4,-1
 444 413 l 1,5,-1
 343 506 l 1,6,-1
 340 0 l 1,7,-1
 247 0 l 1,8,-1
 250 505 l 1,9,-1
 149 413 l 1,0,-1
EndSplineSet
Validated: 1
EndChar

StartChar: u10CC5
Encoding: 70 68805 70
Width: 590
GlyphClass: 1
Flags: W
LayerCount: 2
Fore
SplineSet
263 0 m 1,0,-1
 60 168 l 1,1,-1
 149 168 l 1,2,-1
 250 76 l 1,3,-1
 250 505 l 1,4,-1
 149 413 l 1,5,-1
 60 413 l 1,6,-1
 263 575 l 1,7,-1
 327 575 l 1,8,-1
 530 413 l 1,9,-1
 442 413 l 1,10,-1
 340 506 l 1,11,-1
 340 75 l 1,12,-1
 442 168 l 1,13,-1
 530 168 l 1,14,-1
 327 0 l 1,15,-1
 263 0 l 1,0,-1
EndSplineSet
Validated: 1
EndChar

StartChar: u10CC6
Encoding: 71 68806 71
Width: 593
GlyphClass: 1
Flags: W
LayerCount: 2
Fore
SplineSet
443 464 m 1,0,-1
 150 296 l 1,1,-1
 150 115 l 1,2,3
 278 190 278 190 443 285 c 1,4,-1
 443 464 l 1,0,-1
443 223 m 1,5,6
 297 136 297 136 150 53 c 1,7,-1
 150 0 l 1,8,-1
 60 0 l 1,9,-1
 60 575 l 1,10,-1
 150 575 l 1,11,-1
 150 359 l 1,12,-1
 443 527 l 1,13,-1
 443 575 l 1,14,-1
 533 575 l 1,15,-1
 533 0 l 1,16,-1
 443 0 l 1,17,-1
 443 223 l 1,5,6
EndSplineSet
Validated: 1
EndChar

StartChar: u10CC7
Encoding: 72 68807 72
Width: 431
GlyphClass: 1
Flags: W
LayerCount: 2
Fore
SplineSet
253 575 m 1,0,-1
 253 335 l 1,1,-1
 371 406 l 1,2,-1
 371 343 l 1,3,-1
 253 278 l 1,4,5
 251 173 251 173 251 0 c 1,6,-1
 162 0 l 1,7,-1
 162 232 l 1,8,-1
 60 175 l 1,9,-1
 60 238 l 1,10,-1
 163 297 l 1,11,-1
 162 575 l 1,12,-1
 253 575 l 1,0,-1
EndSplineSet
Validated: 1
EndChar

StartChar: u10CC8
Encoding: 73 68808 73
Width: 470
GlyphClass: 1
Flags: W
LayerCount: 2
Fore
SplineSet
461 403 m 1,0,-1
 461 339 l 1,1,-1
 292 285 l 1,2,-1
 476 0 l 1,3,-1
 384 0 l 1,4,-1
 227 252 l 1,5,-1
 80 0 l 1,6,-1
 -6 0 l 1,7,8
 68 119 68 119 143 237 c 1,9,-1
 38 195 l 1,10,-1
 38 258 l 1,11,-1
 179 309 l 1,12,13
 92 443 92 443 6 575 c 1,14,-1
 96 575 l 1,15,-1
 236 351 l 1,16,-1
 376 575 l 1,17,-1
 462 575 l 1,18,-1
 328 359 l 1,19,-1
 461 403 l 1,0,-1
EndSplineSet
Validated: 1
EndChar

StartChar: u10CC9
Encoding: 74 68809 74
Width: 446
GlyphClass: 1
Flags: W
LayerCount: 2
Fore
SplineSet
147 105 m 0,1,2
 181 115 181 115 199 129 c 1,3,-1
 103 207 l 1,4,-1
 146 247 l 1,5,-1
 242 170 l 1,6,7
 260 194 260 194 279 224 c 0,8,9
 292 246 292 246 291 286 c 0,10,11
 288 359 288 359 246 410 c 1,12,-1
 149 330 l 1,13,-1
 103 371 l 1,14,-1
 199 448 l 1,15,16
 167 470 167 470 110 476 c 0,17,18
 92 478 92 478 74 478 c 2,19,-1
 64 478 l 1,20,-1
 60 571 l 1,21,22
 132 567 132 567 162 557 c 0,23,24
 200 545 200 545 247 498 c 1,25,-1
 322 573 l 1,26,-1
 383 520 l 1,27,-1
 303 455 l 1,28,29
 380 382 380 382 380 288 c 2,30,-1
 380 285 l 2,31,32
 380 243 380 243 369 214 c 0,33,34
 361 192 361 192 345 172 c 0,35,36
 332 156 332 156 302 128 c 1,37,-1
 386 65 l 1,38,-1
 329 4 l 1,39,-1
 256 77 l 1,40,41
 212 33 212 33 163 15 c 0,42,43
 126 2 126 2 74 0 c 1,44,-1
 70 94 l 1,45,0
 108 94 108 94 147 105 c 0,1,2
EndSplineSet
Validated: 33
EndChar

StartChar: u10CCA
Encoding: 75 68810 75
Width: 476
GlyphClass: 1
Flags: W
LayerCount: 2
Fore
SplineSet
127 73 m 0,1,2
 160 88 160 88 185 101 c 1,3,4
 122 143 122 143 95 183 c 0,5,6
 67 226 67 226 67 288 c 0,7,8
 67 348 67 348 94 391 c 0,9,10
 121 433 121 433 184 474 c 1,11,12
 158 488 158 488 123 505 c 0,13,14
 97 517 97 517 60 532 c 1,15,-1
 119 573 l 1,16,17
 189 540 189 540 238 512 c 1,18,19
 287 541 287 541 357 573 c 1,20,-1
 416 532 l 1,21,22
 379 517 379 517 344 500 c 2,23,-1
 292 475 l 1,24,25
 355 433 355 433 381 392 c 0,26,27
 409 349 409 349 409 287 c 0,28,29
 409 226 409 226 382 184 c 256,30,31
 355 142 355 142 291 101 c 1,32,33
 316 88 316 88 359 69 c 0,34,35
 378 61 378 61 412 45 c 1,36,-1
 361 -2 l 1,37,38
 326 16 326 16 304 27 c 0,39,40
 264 48 264 48 238 64 c 1,41,42
 212 48 212 48 176 29 c 0,43,44
 150 15 150 15 115 -2 c 1,45,-1
 64 45 l 1,46,0
 100 60 100 60 127 73 c 0,1,2
300 203 m 0,48,49
 318 237 318 237 318 289 c 0,50,51
 318 338 318 338 302 369 c 0,52,53
 285 401 285 401 238 437 c 1,54,55
 192 403 192 403 175 370 c 0,56,57
 158 338 158 338 158 288 c 0,58,59
 158 239 158 239 174 206 c 0,60,61
 192 172 192 172 238 137 c 1,62,47
 283 171 283 171 300 203 c 0,48,49
EndSplineSet
Validated: 1
EndChar

StartChar: u10CCB
Encoding: 76 68811 76
Width: 448
GlyphClass: 1
Flags: W
LayerCount: 2
Fore
SplineSet
276 582 m 1,0,-1
 175 521 l 1,1,2
 276 476 276 476 329 418 c 0,3,4
 388 352 388 352 388 266 c 0,5,6
 388 186 388 186 335 130 c 0,7,8
 288 80 288 80 189 36 c 1,9,-1
 295 -21 l 1,10,-1
 246 -62 l 1,11,-1
 64 40 l 1,12,13
 94 55 94 55 118 68 c 0,14,15
 146 82 146 82 167 95 c 2,16,-1
 220 131 l 2,17,18
 262 164 262 164 280 198 c 0,19,20
 298 231 298 231 298 272 c 0,21,22
 298 312 298 312 281 344 c 0,23,24
 263 378 263 378 220 411 c 2,25,-1
 167 448 l 2,26,27
 145 462 145 462 114 478 c 0,28,29
 92 490 92 490 60 506 c 1,30,-1
 232 619 l 1,31,-1
 276 582 l 1,0,-1
EndSplineSet
Validated: 1
EndChar

StartChar: u10CCC
Encoding: 77 68812 77
Width: 605
GlyphClass: 1
Flags: W
LayerCount: 2
Fore
SplineSet
261 0 m 1,0,1
 162 61 162 61 114 124 c 0,2,3
 60 196 60 196 60 286 c 256,4,5
 60 376 60 376 114 447 c 0,6,7
 162 510 162 510 261 571 c 1,8,-1
 344 571 l 1,9,10
 442 510 442 510 490 447 c 0,11,12
 545 375 545 375 545 285 c 256,13,14
 545 195 545 195 490 124 c 0,15,16
 442 61 442 61 344 0 c 1,17,-1
 261 0 l 1,0,1
396 425 m 1,18,19
 378 445 378 445 353 467 c 0,20,21
 332 485 332 485 304 507 c 1,22,-1
 301 507 l 1,23,24
 272 485 272 485 249 464 c 0,25,26
 227 445 227 445 209 426 c 1,27,-1
 302 332 l 1,28,-1
 396 425 l 1,18,19
256 284 m 1,29,-1
 170 372 l 1,30,31
 151 333 151 333 151 286 c 0,32,33
 151 238 151 238 170 199 c 1,34,-1
 256 284 l 1,29,-1
454 285 m 256,36,37
 454 332 454 332 435 371 c 1,38,-1
 349 284 l 1,39,-1
 435 199 l 1,40,35
 454 238 454 238 454 285 c 256,36,37
304 64 m 1,41,42
 361 106 361 106 395 142 c 1,43,-1
 302 236 l 1,44,-1
 210 142 l 1,45,46
 244 106 244 106 301 64 c 1,47,-1
 304 64 l 1,41,42
EndSplineSet
Validated: 1
EndChar

StartChar: u10CCD
Encoding: 78 68813 78
Width: 573
GlyphClass: 1
Flags: W
LayerCount: 2
Fore
SplineSet
286 495 m 1,0,-1
 91 0 l 1,1,-1
 5 0 l 1,2,-1
 231 575 l 1,3,-1
 332 575 l 1,4,-1
 568 0 l 1,5,-1
 482 0 l 1,6,-1
 378 246 l 1,7,-1
 283 0 l 1,8,-1
 196 1 l 1,9,10
 344 335 344 335 344 341 c 2,11,-1
 286 495 l 1,0,-1
EndSplineSet
Validated: 1
EndChar

StartChar: u10CCE
Encoding: 79 68814 79
Width: 465
GlyphClass: 1
Flags: W
LayerCount: 2
Fore
SplineSet
274 260 m 1,0,-1
 405 343 l 1,1,-1
 405 281 l 1,2,-1
 273 199 l 1,3,-1
 271 0 l 1,4,-1
 181 0 l 1,5,-1
 181 162 l 1,6,-1
 60 86 l 1,7,-1
 60 147 l 1,8,-1
 181 226 l 1,9,-1
 181 330 l 1,10,-1
 60 254 l 1,11,-1
 60 315 l 1,12,-1
 181 394 l 1,13,-1
 181 575 l 1,14,-1
 271 575 l 1,15,-1
 272 428 l 1,16,-1
 405 511 l 1,17,-1
 405 449 l 1,18,-1
 273 366 l 1,19,-1
 274 260 l 1,0,-1
EndSplineSet
Validated: 1
EndChar

StartChar: u10CCF
Encoding: 80 68815 80
Width: 550
GlyphClass: 1
Flags: W
LayerCount: 2
Fore
SplineSet
275 186 m 1,0,-1
 387 290 l 1,1,-1
 275 396 l 1,2,-1
 163 290 l 1,3,-1
 275 186 l 1,0,-1
215 435 m 1,4,-1
 67 575 l 1,5,-1
 165 575 l 1,6,-1
 275 467 l 1,7,-1
 385 575 l 1,8,-1
 482 575 l 1,9,-1
 334 435 l 1,10,-1
 477 291 l 1,11,-1
 334 151 l 1,12,-1
 490 0 l 1,13,-1
 392 0 l 1,14,-1
 275 119 l 1,15,-1
 157 0 l 1,16,-1
 60 0 l 1,17,-1
 215 151 l 1,18,-1
 73 290 l 1,19,-1
 215 435 l 1,4,-1
EndSplineSet
Validated: 1
EndChar

StartChar: u10CD0
Encoding: 81 68816 81
Width: 465
GlyphClass: 1
Flags: W
LayerCount: 2
Fore
SplineSet
405 579 m 1,0,-1
 405 519 l 1,1,-1
 273 435 l 1,2,-1
 271 0 l 1,3,-1
 181 0 l 1,4,-1
 181 399 l 1,5,-1
 60 323 l 1,6,-1
 60 384 l 1,7,-1
 181 463 l 1,8,-1
 181 575 l 1,9,-1
 271 575 l 1,10,-1
 274 497 l 1,11,-1
 405 579 l 1,0,-1
EndSplineSet
Validated: 1
EndChar

StartChar: u10CD1
Encoding: 82 68817 82
Width: 465
GlyphClass: 1
Flags: W
LayerCount: 2
Fore
SplineSet
405 511 m 1,0,-1
 273 427 l 1,1,-1
 271 0 l 1,2,-1
 181 0 l 1,3,-1
 181 391 l 1,4,-1
 60 315 l 1,5,-1
 60 376 l 1,6,-1
 404 575 l 1,7,-1
 405 511 l 1,0,-1
EndSplineSet
Validated: 1
EndChar

StartChar: u10CD2
Encoding: 83 68818 83
Width: 391
GlyphClass: 1
Flags: W
LayerCount: 2
Fore
SplineSet
252 575 m 1,0,-1
 331 575 l 1,1,-1
 329 0 l 1,2,-1
 239 0 l 1,3,-1
 239 507 l 1,4,-1
 60 369 l 1,5,-1
 60 435 l 1,6,-1
 252 575 l 1,0,-1
EndSplineSet
Validated: 1
EndChar

StartChar: u10CD3
Encoding: 84 68819 84
Width: 547
GlyphClass: 1
Flags: W
LayerCount: 2
Fore
SplineSet
405 294 m 1,0,-1
 272 515 l 1,1,-1
 142 291 l 1,2,-1
 272 62 l 1,3,-1
 405 294 l 1,0,-1
226 0 m 1,4,-1
 60 291 l 1,5,-1
 223 575 l 1,6,-1
 317 575 l 1,7,-1
 487 294 l 1,8,-1
 320 0 l 1,9,-1
 226 0 l 1,4,-1
EndSplineSet
Validated: 1
EndChar

StartChar: u10CD4
Encoding: 85 68820 85
Width: 485
GlyphClass: 1
Flags: W
LayerCount: 2
Fore
SplineSet
296 0 m 1,0,-1
 209 1 l 1,1,-1
 203 496 l 1,2,-1
 80 335 l 1,3,-1
 5 335 l 1,4,-1
 206 576 l 1,5,-1
 294 575 l 1,6,-1
 294 83 l 1,7,-1
 405 262 l 1,8,-1
 480 263 l 1,9,-1
 296 0 l 1,0,-1
EndSplineSet
Validated: 1
EndChar

StartChar: u10CD5
Encoding: 86 68821 86
Width: 588
GlyphClass: 1
Flags: W
LayerCount: 2
Fore
SplineSet
583 157 m 1,0,-1
 581 78 l 1,1,-1
 537 2 l 1,2,-1
 453 0 l 1,3,-1
 292 252 l 1,4,-1
 129 0 l 1,5,-1
 51 2 l 1,6,-1
 7 78 l 1,7,-1
 5 157 l 1,8,-1
 95 73 l 1,9,10
 164 187 164 187 232 302 c 1,11,-1
 98 507 l 1,12,-1
 21 422 l 1,13,-1
 23 501 l 1,14,-1
 67 573 l 1,15,-1
 155 575 l 1,16,-1
 295 351 l 1,17,-1
 445 575 l 1,18,19
 521 575 521 575 524 573 c 2,20,-1
 568 501 l 1,21,-1
 569 422 l 1,22,-1
 479 506 l 1,23,-1
 355 303 l 1,24,-1
 493 71 l 1,25,-1
 583 157 l 1,0,-1
EndSplineSet
Validated: 1
EndChar

StartChar: u10CD6
Encoding: 87 68822 87
Width: 575
GlyphClass: 1
Flags: W
LayerCount: 2
Fore
SplineSet
91 0 m 1,0,-1
 5 0 l 1,1,-1
 241 575 l 1,2,-1
 334 575 l 1,3,-1
 570 0 l 1,4,-1
 484 0 l 1,5,-1
 446 107 l 1,6,-1
 403 0 l 1,7,-1
 328 0 l 1,8,-1
 404 195 l 1,9,-1
 372 273 l 1,10,11
 372 272 372 272 259 0 c 1,12,-1
 184 0 l 1,13,-1
 335 379 l 1,14,-1
 288 495 l 2,15,16
 288 496 288 496 250 386 c 1,17,-1
 91 0 l 1,0,-1
EndSplineSet
Validated: 33
EndChar

StartChar: u10CD7
Encoding: 88 68823 88
Width: 584
GlyphClass: 1
Flags: W
LayerCount: 2
Fore
SplineSet
245 0 m 1,0,1
 161 61 161 61 118 119 c 0,2,3
 60 196 60 196 60 286 c 256,4,5
 60 376 60 376 118 452 c 0,6,7
 162 510 162 510 245 571 c 1,8,-1
 319 571 l 1,9,10
 411 510 411 510 459 453 c 0,11,12
 524 375 524 375 524 285 c 0,13,14
 524 196 524 196 460 119 c 0,15,16
 412 61 412 61 319 0 c 1,17,-1
 245 0 l 1,0,1
368 425 m 1,18,19
 338 463 338 463 284 507 c 1,20,-1
 282 507 l 1,21,22
 204 443 204 443 183 418 c 0,23,24
 168 401 168 401 154 374 c 0,25,26
 117 315 117 315 135 273 c 1,27,28
 140 250 140 250 165 199 c 1,29,-1
 368 425 l 1,18,19
284 64 m 1,30,31
 374 140 374 140 406 183 c 0,32,33
 434 220 434 220 434 253 c 0,34,35
 434 290 434 290 401 369 c 1,36,-1
 201 142 l 1,37,38
 216 123 216 123 239 102 c 0,39,40
 257 84 257 84 282 64 c 1,41,-1
 284 64 l 1,30,31
EndSplineSet
Validated: 33
EndChar

StartChar: u10CD8
Encoding: 89 68824 89
Width: 455
GlyphClass: 1
Flags: W
LayerCount: 2
Fore
SplineSet
61 104 m 1,0,-1
 61 168 l 1,1,-1
 260 271 l 1,2,-1
 61 371 l 1,3,-1
 60 427 l 1,4,-1
 302 555 l 1,5,-1
 395 555 l 1,6,-1
 393 0 l 1,7,-1
 300 0 l 1,8,-1
 61 104 l 1,0,-1
299 231 m 1,9,-1
 123 138 l 1,10,-1
 300 60 l 1,11,-1
 299 231 l 1,9,-1
301 495 m 1,12,-1
 118 402 l 1,13,-1
 301 309 l 1,14,-1
 301 495 l 1,12,-1
EndSplineSet
Validated: 1
EndChar

StartChar: u10CD9
Encoding: 90 68825 90
Width: 410
GlyphClass: 1
Flags: W
LayerCount: 2
Fore
SplineSet
60 69 m 1,0,-1
 70 69 l 2,1,2
 255 69 255 69 255 287 c 0,3,4
 255 397 255 397 208 451 c 0,5,6
 165 500 165 500 82 500 c 2,7,-1
 60 500 l 1,8,-1
 60 582 l 1,9,10
 138 580 138 580 202 551 c 0,11,12
 287 514 287 514 322 443 c 0,13,14
 350 386 350 386 350 298 c 0,15,16
 350 141 350 141 262 61 c 1,17,18
 186 -24 186 -24 60 -7 c 1,19,-1
 60 69 l 1,0,-1
EndSplineSet
Validated: 33
EndChar

StartChar: u10CDA
Encoding: 91 68826 91
Width: 500
GlyphClass: 1
Flags: W
LayerCount: 2
Fore
SplineSet
362 72 m 0,1,2
 287 0 287 0 151 0 c 2,3,-1
 60 0 l 1,4,-1
 60 571 l 1,5,-1
 167 571 l 2,6,7
 251 571 251 571 313 539 c 0,8,9
 374 507 374 507 406 447 c 0,10,11
 440 383 440 383 440 288 c 0,12,0
 440 146 440 146 362 72 c 0,1,2
298 447 m 0,14,15
 255 494 255 494 172 494 c 2,16,-1
 150 494 l 1,17,-1
 150 77 l 1,18,-1
 160 77 l 2,19,20
 345 77 345 77 345 288 c 0,21,13
 345 394 345 394 298 447 c 0,14,15
EndSplineSet
Validated: 1
EndChar

StartChar: u10CDB
Encoding: 92 68827 92
Width: 469
GlyphClass: 1
Flags: W
LayerCount: 2
Fore
SplineSet
171 52 m 2,0,1
 319 66 319 66 319 286 c 0,2,3
 319 396 319 396 282 450 c 0,4,5
 248 499 248 499 182 499 c 2,6,-1
 162 499 l 1,7,-1
 60 423 l 1,8,-1
 61 490 l 1,9,10
 124 548 124 548 162 580 c 1,11,12
 231 579 231 579 287 551 c 0,13,14
 361 514 361 514 389 440 c 0,15,16
 409 386 409 386 409 301 c 0,17,18
 409 141 409 141 337 61 c 1,19,20
 273 -25 273 -25 162 -9 c 1,21,22
 124 17 124 17 61 63 c 1,23,-1
 61 127 l 1,24,-1
 162 51 l 1,25,-1
 171 52 l 2,0,1
EndSplineSet
Validated: 33
EndChar

StartChar: u10CDC
Encoding: 93 68828 93
Width: 532
GlyphClass: 1
Flags: W
LayerCount: 2
Fore
SplineSet
472 279 m 0,1,2
 473 276 473 276 472 276 c 1,3,4
 472 232 472 232 461 203 c 0,5,6
 453 179 453 179 435 155 c 0,7,8
 424 141 424 141 397 111 c 1,9,-1
 263 2 l 1,10,-1
 193 0 l 1,11,-1
 60 156 l 1,12,-1
 180 275 l 1,13,-1
 233 223 l 1,14,-1
 154 150 l 1,15,16
 155 141 155 141 183 119 c 1,17,18
 235 64 235 64 258 87 c 1,19,20
 275 94 275 94 337 153 c 1,21,22
 356 186 356 186 363 201 c 0,23,24
 384 237 384 237 377 289 c 1,25,26
 374 358 374 358 341 412 c 1,27,28
 267 474 267 474 233 483 c 0,29,30
 216 489 216 489 187 484 c 0,31,32
 182 484 182 484 190 574 c 1,33,34
 250 574 250 574 272 567 c 0,35,36
 315 553 315 553 398 458 c 1,37,0
 472 380 472 380 472 279 c 0,1,2
EndSplineSet
Validated: 33
EndChar

StartChar: u10CDD
Encoding: 94 68829 94
Width: 390
GlyphClass: 1
Flags: W
LayerCount: 2
Fore
SplineSet
326 433 m 5,0,-1
 166 179 l 5,1,-1
 330 52 l 5,2,-1
 265 -2 l 1,3,-1
 60 177 l 1,4,-1
 220 433 l 1,5,-1
 88 533 l 1,6,-1
 145 574 l 5,7,-1
 326 433 l 5,0,-1
EndSplineSet
Validated: 1
EndChar

StartChar: u10CDE
Encoding: 95 68830 95
Width: 484
GlyphClass: 1
Flags: W
LayerCount: 2
Fore
SplineSet
305 575 m 1,0,-1
 393 575 l 1,1,-1
 198 327 l 1,2,-1
 424 0 l 1,3,-1
 332 0 l 1,4,-1
 150 279 l 1,5,-1
 150 0 l 1,6,-1
 60 0 l 1,7,-1
 60 575 l 1,8,-1
 150 575 l 1,9,-1
 150 357 l 1,10,-1
 305 575 l 1,0,-1
EndSplineSet
Validated: 1
EndChar

StartChar: u10CDF
Encoding: 96 68831 96
Width: 596
GlyphClass: 1
Flags: W
LayerCount: 2
Fore
SplineSet
303 451 m 1,0,-1
 301 453 l 1,1,2
 281 470 281 470 248 479 c 0,3,4
 228 484 228 484 187 484 c 0,5,6
 182 484 182 484 190 574 c 1,7,8
 253 574 253 574 270 567 c 0,9,10
 334 541 334 541 379 495 c 1,11,-1
 494 590 l 1,12,-1
 536 537 l 1,13,-1
 421 452 l 1,14,15
 472 373 472 373 472 279 c 2,16,-1
 472 276 l 2,17,18
 472 232 472 232 461 201 c 0,19,20
 455 183 455 183 437 158 c 0,21,22
 427 143 427 143 408 116 c 1,23,-1
 526 36 l 1,24,-1
 484 -6 l 1,25,-1
 367 74 l 1,26,27
 353 62 353 62 353 62 c 2,28,-1
 263 2 l 1,29,-1
 193 0 l 1,30,-1
 60 156 l 1,31,-1
 180 275 l 1,32,-1
 233 223 l 1,33,-1
 154 150 l 1,34,35
 154 146 154 146 177 123 c 0,36,37
 234 66 234 66 284 99 c 0,38,39
 293 105 293 105 301 110 c 1,40,-1
 240 142 l 1,41,-1
 282 183 l 1,42,-1
 336 154 l 1,43,44
 356 190 356 190 362 201 c 0,45,46
 382 235 382 235 377 290 c 0,47,48
 372 351 372 351 341 408 c 1,49,-1
 292 382 l 1,50,-1
 250 423 l 1,51,-1
 303 451 l 1,0,-1
EndSplineSet
Validated: 33
EndChar

StartChar: u10CE0
Encoding: 97 68832 97
Width: 503
GlyphClass: 1
Flags: W
LayerCount: 2
Fore
SplineSet
443 575 m 1,0,-1
 443 0 l 1,1,-1
 353 0 l 1,2,-1
 353 214 l 1,3,-1
 60 46 l 1,4,-1
 60 113 l 1,5,-1
 353 280 l 1,6,-1
 353 362 l 1,7,-1
 60 194 l 1,8,-1
 60 257 l 1,9,-1
 353 425 l 1,10,-1
 353 507 l 1,11,-1
 60 337 l 1,12,-1
 60 405 l 1,13,-1
 367 575 l 1,14,-1
 443 575 l 1,0,-1
EndSplineSet
Validated: 1
EndChar

StartChar: u10CE1
Encoding: 98 68833 98
Width: 823
GlyphClass: 1
Flags: W
LayerCount: 2
Fore
SplineSet
417 59 m 1,0,1
 482 106 482 106 528 166 c 0,2,3
 583 238 583 238 583 294 c 256,4,5
 583 350 583 350 527 424 c 0,6,7
 479 489 479 489 417 530 c 1,8,-1
 414 530 l 1,9,10
 352 487 352 487 304 424 c 0,11,12
 248 349 248 349 248 294 c 0,13,14
 248 238 248 238 305 164 c 0,15,16
 352 102 352 102 414 59 c 1,17,-1
 417 59 l 1,0,1
179 0 m 1,18,-1
 121 39 l 1,19,-1
 216 127 l 1,20,21
 180 173 180 173 167 223 c 1,22,-1
 121 170 l 1,23,-1
 29 170 l 1,24,-1
 159 296 l 1,25,26
 161 344 161 344 175 377 c 0,27,28
 189 412 189 412 214 443 c 1,29,-1
 94 383 l 1,30,-1
 26 384 l 1,31,-1
 413 575 l 1,32,-1
 809 382 l 1,33,-1
 741 388 l 1,34,-1
 620 445 l 1,35,36
 646 413 646 413 660 378 c 0,37,38
 675 339 675 339 676 296 c 1,39,-1
 806 170 l 1,40,-1
 713 170 l 1,41,-1
 668 223 l 1,42,43
 661 198 661 198 647 172 c 0,44,45
 636 150 636 150 619 127 c 1,46,-1
 713 39 l 1,47,-1
 650 0 l 1,48,-1
 562 83 l 1,49,-1
 443 0 l 1,50,-1
 378 0 l 1,51,-1
 268 83 l 1,52,-1
 179 0 l 1,18,-1
EndSplineSet
Validated: 1
EndChar

StartChar: u10CE2
Encoding: 99 68834 99
Width: 593
GlyphClass: 1
Flags: W
LayerCount: 2
Fore
SplineSet
443 0 m 1,0,-1
 443 343 l 1,1,-1
 150 175 l 1,2,-1
 150 0 l 1,3,-1
 60 0 l 1,4,-1
 60 575 l 1,5,-1
 150 575 l 1,6,-1
 150 238 l 1,7,-1
 443 406 l 1,8,-1
 443 575 l 1,9,-1
 533 575 l 1,10,-1
 533 0 l 1,11,-1
 443 0 l 1,0,-1
EndSplineSet
Validated: 1
EndChar

StartChar: u10CE3
Encoding: 100 68835 100
Width: 413
GlyphClass: 1
Flags: W
LayerCount: 2
Fore
SplineSet
60 141 m 1,0,-1
 60 220 l 1,1,-1
 353 431 l 1,2,-1
 353 352 l 1,3,-1
 60 141 l 1,0,-1
EndSplineSet
Validated: 1
EndChar

StartChar: u10CE4
Encoding: 101 68836 101
Width: 574
GlyphClass: 1
Flags: W
LayerCount: 2
Fore
SplineSet
483 0 m 1,0,-1
 333 368 l 2,1,2
 302 445 302 445 299 457 c 0,3,4
 297 466 297 466 287 495 c 1,5,6
 277 464 277 464 273 450 c 0,7,8
 270 437 270 437 249 386 c 2,9,-1
 90 0 l 1,10,-1
 5 0 l 1,11,-1
 241 575 l 1,12,-1
 333 575 l 1,13,-1
 569 0 l 1,14,-1
 483 0 l 1,0,-1
EndSplineSet
Validated: 1
EndChar

StartChar: u10CE5
Encoding: 102 68837 102
Width: 208
GlyphClass: 1
Flags: W
LayerCount: 2
Fore
SplineSet
60 0 m 1,0,-1
 60 575 l 1,1,-1
 148 575 l 1,2,-1
 148 0 l 1,3,-1
 60 0 l 1,0,-1
EndSplineSet
Validated: 1
EndChar

StartChar: u10CE6
Encoding: 103 68838 103
Width: 394
GlyphClass: 1
Flags: W
LayerCount: 2
Fore
SplineSet
244 575 m 1,0,-1
 334 575 l 1,1,-1
 334 0 l 1,2,-1
 244 0 l 1,3,-1
 244 331 l 1,4,-1
 60 574 l 1,5,-1
 126 574 l 1,6,-1
 244 413 l 1,7,-1
 244 575 l 1,0,-1
EndSplineSet
Validated: 1
EndChar

StartChar: u10CE7
Encoding: 104 68839 104
Width: 713
GlyphClass: 1
Flags: W
LayerCount: 2
Fore
SplineSet
60 398 m 1,0,-1
 190 571 l 1,1,-1
 314 413 l 1,2,-1
 313 574 l 1,3,-1
 403 574 l 1,4,-1
 404 413 l 1,5,-1
 526 571 l 1,6,-1
 653 396 l 1,7,-1
 586 396 l 1,8,-1
 526 480 l 1,9,-1
 403 342 l 1,10,-1
 407 2 l 1,11,-1
 317 2 l 1,12,-1
 313 342 l 1,13,-1
 191 476 l 1,14,-1
 127 398 l 1,15,-1
 60 398 l 1,0,-1
EndSplineSet
Validated: 1
EndChar

StartChar: u10CE8
Encoding: 105 68840 105
Width: 492
GlyphClass: 1
Flags: W
LayerCount: 2
Fore
SplineSet
247 358 m 2,0,1
 247 353 247 353 387 575 c 1,2,-1
 473 575 l 1,3,-1
 297 303 l 1,4,-1
 487 0 l 1,5,-1
 395 0 l 1,6,-1
 326 107 l 1,7,-1
 262 0 l 1,8,-1
 186 0 l 1,9,-1
 292 172 l 1,10,-1
 244 252 l 1,11,-1
 91 0 l 1,12,-1
 5 0 l 1,13,-1
 194 302 l 1,14,-1
 17 575 l 1,15,-1
 107 575 l 1,16,-1
 154 498 l 2,17,18
 157 496 157 496 208 575 c 1,19,-1
 292 575 l 1,20,-1
 196 428 l 1,21,-1
 247 358 l 2,0,1
EndSplineSet
Validated: 33
EndChar

StartChar: u10CE9
Encoding: 106 68841 106
Width: 492
GlyphClass: 1
Flags: W
LayerCount: 2
Fore
SplineSet
473 575 m 1,0,-1
 297 303 l 1,1,-1
 487 0 l 1,2,-1
 346 0 l 1,3,-1
 220 78 l 1,4,-1
 218 157 l 1,5,-1
 355 82 l 1,6,-1
 244 252 l 1,7,-1
 91 0 l 1,8,-1
 5 0 l 1,9,-1
 194 302 l 1,10,-1
 17 575 l 1,11,-1
 107 575 l 1,12,-1
 247 351 l 1,13,-1
 349 500 l 1,14,-1
 212 424 l 1,15,-1
 214 503 l 1,16,17
 293 549 293 549 340 575 c 1,18,-1
 473 575 l 1,0,-1
EndSplineSet
Validated: 1
EndChar

StartChar: u10CEA
Encoding: 107 68842 107
Width: 602
GlyphClass: 1
Flags: W
LayerCount: 2
Fore
SplineSet
65 0 m 1,0,-1
 60 575 l 1,1,-1
 137 575 l 1,2,-1
 291 426 l 1,3,-1
 464 574 l 1,4,-1
 542 575 l 1,5,-1
 542 0 l 1,6,-1
 464 2 l 1,7,-1
 291 153 l 1,8,-1
 137 -1 l 1,9,-1
 65 0 l 1,0,-1
449 86 m 1,10,-1
 449 490 l 1,11,-1
 293 347 l 1,12,-1
 151 491 l 1,13,-1
 151 97 l 1,14,-1
 293 231 l 1,15,-1
 449 86 l 1,10,-1
EndSplineSet
Validated: 1
EndChar

StartChar: u10CEB
Encoding: 108 68843 108
Width: 664
GlyphClass: 1
Flags: W
LayerCount: 2
Fore
SplineSet
297 304 m 1,0,1
 155 501 155 501 153 502 c 1,2,-1
 161 87 l 1,3,-1
 297 304 l 1,0,1
183 578 m 1,4,-1
 339 353 l 1,5,-1
 496 578 l 1,6,-1
 606 577 l 1,7,-1
 605 1 l 1,8,-1
 488 1 l 1,9,-1
 337 254 l 1,10,-1
 183 1 l 1,11,-1
 62 1 l 1,12,-1
 60 576 l 1,13,-1
 183 578 l 1,4,-1
379 305 m 1,14,-1
 519 84 l 1,15,16
 519 85 519 85 513 504 c 1,17,-1
 379 305 l 1,14,-1
EndSplineSet
Validated: 1
EndChar

StartChar: u10CEC
Encoding: 109 68844 109
Width: 688
GlyphClass: 1
Flags: W
LayerCount: 2
Fore
SplineSet
578 539 m 1,0,-1
 622 491 l 1,1,-1
 518 400 l 1,2,3
 565 328 565 328 566 261 c 0,4,5
 566 206 566 206 535 157 c 1,6,-1
 628 57 l 1,7,-1
 576 1 l 1,8,-1
 482 100 l 1,9,10
 446 50 446 50 393 1 c 1,11,-1
 288 1 l 1,12,13
 290 5 290 5 292 5 c 1,14,-1
 285 5 l 1,15,16
 234 52 234 52 199 97 c 1,17,-1
 108 2 l 1,18,-1
 65 54 l 1,19,-1
 160 153 l 1,20,-1
 157 159 l 2,21,22
 140 185 140 185 137 192 c 0,23,24
 136 193 136 193 134 197 c 0,25,26
 123 219 123 219 120 232 c 2,27,-1
 118 239 l 2,28,29
 114 259 114 259 114 273 c 0,30,31
 114 293 114 293 123 320 c 0,32,33
 130 343 130 343 140 360 c 0,34,35
 143 366 143 366 159 392 c 1,36,-1
 60 498 l 1,37,-1
 108 540 l 1,38,-1
 198 454 l 1,39,40
 226 493 226 493 290 553 c 1,41,-1
 389 553 l 1,42,43
 387 549 387 549 386 549 c 1,44,-1
 387 549 l 1,45,46
 439 502 439 502 474 454 c 1,47,-1
 578 539 l 1,0,-1
436 171 m 0,49,50
 472 220 472 220 472 270 c 256,51,52
 472 320 472 320 436 373 c 0,53,54
 404 419 404 419 337 478 c 1,55,56
 272 421 272 421 241 374 c 0,57,58
 207 323 207 323 207 273 c 256,59,60
 207 223 207 223 242 173 c 0,61,62
 273 131 273 131 340 74 c 1,63,48
 406 131 406 131 436 171 c 0,49,50
EndSplineSet
Validated: 1
EndChar

StartChar: u10CED
Encoding: 110 68845 110
Width: 462
GlyphClass: 1
Flags: W
LayerCount: 2
Fore
SplineSet
312 2 m 1,0,-1
 311 290 l 1,1,-1
 60 173 l 1,2,-1
 60 571 l 1,3,-1
 150 571 l 1,4,-1
 146 278 l 1,5,-1
 402 394 l 1,6,-1
 402 2 l 1,7,-1
 312 2 l 1,0,-1
EndSplineSet
Validated: 1
EndChar

StartChar: u10CEE
Encoding: 111 68846 111
Width: 598
GlyphClass: 1
Flags: W
LayerCount: 2
Fore
SplineSet
290 426 m 1,0,-1
 462 573 l 1,1,-1
 538 575 l 1,2,-1
 538 0 l 1,3,-1
 448 0 l 1,4,-1
 448 490 l 1,5,-1
 292 347 l 1,6,-1
 150 491 l 1,7,-1
 150 0 l 1,8,-1
 60 0 l 1,9,-1
 60 575 l 1,10,-1
 136 575 l 1,11,-1
 290 426 l 1,0,-1
EndSplineSet
Validated: 1
EndChar

StartChar: u10CEF
Encoding: 112 68847 112
Width: 593
GlyphClass: 1
Flags: W
LayerCount: 2
Fore
SplineSet
152 280 m 1,0,-1
 150 238 l 1,1,-1
 443 406 l 1,2,-1
 443 487 l 1,3,-1
 153 320 l 1,4,-1
 152 280 l 1,0,-1
443 343 m 1,5,-1
 150 175 l 1,6,-1
 150 94 l 1,7,-1
 443 261 l 1,8,-1
 443 343 l 1,5,-1
150 23 m 1,9,-1
 150 0 l 1,10,-1
 60 0 l 1,11,-1
 60 575 l 1,12,-1
 150 575 l 1,13,-1
 150 386 l 1,14,-1
 443 554 l 1,15,-1
 443 575 l 1,16,-1
 533 575 l 1,17,-1
 533 0 l 1,18,-1
 443 0 l 1,19,-1
 443 195 l 1,20,-1
 150 23 l 1,9,-1
EndSplineSet
Validated: 1
EndChar

StartChar: u10CF0
Encoding: 113 68848 113
Width: 580
GlyphClass: 1
Flags: W
LayerCount: 2
Fore
SplineSet
335 432 m 1,0,-1
 453 574 l 1,1,-1
 520 574 l 1,2,-1
 335 355 l 1,3,-1
 335 0 l 1,4,-1
 245 0 l 1,5,-1
 245 358 l 1,6,-1
 60 574 l 1,7,-1
 127 574 l 1,8,-1
 245 432 l 1,9,-1
 245 575 l 1,10,-1
 335 575 l 1,11,-1
 335 432 l 1,0,-1
EndSplineSet
Validated: 1
EndChar

StartChar: u10CF1
Encoding: 114 68849 114
Width: 712
GlyphClass: 1
Flags: W
LayerCount: 2
Fore
SplineSet
525 571 m 1,1,-1
 652 435 l 1,2,-1
 585 435 l 1,3,-1
 525 503 l 1,4,-1
 403 394 l 1,5,-1
 399 276 l 1,6,-1
 525 396 l 1,7,-1
 652 259 l 1,8,-1
 585 259 l 1,9,-1
 525 324 l 1,10,-1
 398 193 l 1,11,-1
 399 75 l 1,12,-1
 525 227 l 1,13,-1
 652 79 l 1,14,-1
 585 79 l 1,15,-1
 525 143 l 1,16,-1
 402 0 l 1,17,-1
 313 0 l 1,18,-1
 191 139 l 1,19,-1
 127 80 l 1,20,-1
 60 80 l 1,21,-1
 190 227 l 1,22,-1
 314 75 l 1,23,-1
 313 193 l 1,24,-1
 191 320 l 1,25,-1
 127 261 l 1,26,-1
 60 261 l 1,27,-1
 190 396 l 1,28,-1
 314 276 l 1,29,-1
 313 394 l 1,30,-1
 191 499 l 1,31,-1
 127 436 l 1,32,-1
 60 436 l 1,33,-1
 190 571 l 1,34,-1
 314 451 l 1,35,-1
 313 575 l 1,36,-1
 403 575 l 1,37,38
 402 453 402 453 404 453 c 0,39,0
 464 511 464 511 525 571 c 1,1,-1
EndSplineSet
Validated: 33
EndChar

StartChar: u10CF2
Encoding: 115 68850 115
Width: 643
GlyphClass: 1
Flags: W
LayerCount: 2
Fore
SplineSet
447 186 m 0,1,2
 490 255 490 255 490 290 c 0,3,4
 490 322 490 322 454 383 c 0,5,6
 414 450 414 450 365 494 c 1,7,-1
 366 82 l 1,8,0
 411 128 411 128 447 186 c 0,1,2
276 494 m 1,9,10
 228 448 228 448 189 382 c 0,11,12
 153 321 153 321 153 291 c 0,13,14
 153 257 153 257 196 187 c 0,15,16
 232 129 232 129 275 84 c 1,17,-1
 276 494 l 1,9,10
283 1 m 1,18,19
 167 79 167 79 114 146 c 0,20,21
 60 215 60 215 60 290 c 0,22,23
 60 363 60 363 112 431 c 0,24,25
 163 498 163 498 274 573 c 1,26,-1
 364 573 l 1,27,28
 479 497 479 497 531 428 c 256,29,30
 583 359 583 359 583 285 c 0,31,32
 583 210 583 210 532 144 c 256,33,34
 481 78 481 78 365 1 c 1,35,-1
 283 1 l 1,18,19
EndSplineSet
Validated: 1
EndChar

StartChar: u10CFA
Encoding: 116 68858 116
Width: 208
GlyphClass: 1
Flags: W
LayerCount: 2
Fore
SplineSet
60 0 m 1,0,-1
 60 714 l 1,1,-1
 148 714 l 1,2,-1
 148 0 l 1,3,-1
 60 0 l 1,0,-1
EndSplineSet
Validated: 1
EndChar

StartChar: u10CFB
Encoding: 117 68859 117
Width: 510
GlyphClass: 1
Flags: W
LayerCount: 2
Fore
SplineSet
301 0 m 1,0,-1
 209 0 l 1,1,-1
 5 714 l 1,2,-1
 90 714 l 1,3,-1
 219 256 l 2,4,5
 233 206 233 206 241 174 c 0,6,7
 249 135 249 135 255 100 c 1,8,9
 261 135 261 135 270 174 c 0,10,11
 277 207 277 207 291 258 c 2,12,-1
 419 714 l 1,13,-1
 505 714 l 1,14,-1
 301 0 l 1,0,-1
EndSplineSet
Validated: 1
EndChar

StartChar: u10CFC
Encoding: 118 68860 118
Width: 492
GlyphClass: 1
Flags: W
LayerCount: 2
Fore
SplineSet
395 0 m 1,0,-1
 244 310 l 1,1,-1
 91 0 l 1,2,-1
 5 0 l 1,3,-1
 194 372 l 1,4,-1
 17 714 l 1,5,-1
 107 714 l 1,6,-1
 247 434 l 1,7,-1
 387 714 l 1,8,-1
 473 714 l 1,9,-1
 297 374 l 1,10,-1
 487 0 l 1,11,-1
 395 0 l 1,0,-1
EndSplineSet
Validated: 1
EndChar

StartChar: u10CFD
Encoding: 119 68861 119
Width: 529
GlyphClass: 1
Flags: W
LayerCount: 2
Fore
SplineSet
438 714 m 1,0,-1
 524 714 l 1,1,-1
 320 0 l 1,2,-1
 210 0 l 1,3,-1
 5 714 l 1,4,-1
 90 714 l 1,5,-1
 216 263 l 1,6,-1
 210 715 l 1,7,-1
 318 715 l 1,8,-1
 311 261 l 1,9,-1
 438 714 l 1,0,-1
EndSplineSet
Validated: 1
EndChar

StartChar: u10CFE
Encoding: 120 68862 120
Width: 510
GlyphClass: 1
Flags: W
LayerCount: 2
Fore
SplineSet
209 720 m 1,1,-1
 297 720 l 1,2,-1
 297 483 l 1,3,-1
 405 714 l 1,4,-1
 491 714 l 1,5,-1
 314 374 l 1,6,-1
 505 0 l 1,7,-1
 413 0 l 1,8,-1
 297 238 l 1,9,-1
 297 0 l 1,10,-1
 209 0 l 1,11,-1
 210 240 l 1,12,-1
 91 0 l 1,13,-1
 5 0 l 1,14,-1
 194 372 l 1,15,-1
 17 714 l 1,16,-1
 107 714 l 1,17,-1
 215 482 l 1,18,0
 209 666 209 666 209 720 c 1,1,-1
EndSplineSet
Validated: 1
EndChar

StartChar: u10CFF
Encoding: 121 68863 121
Width: 510
GlyphClass: 1
Flags: W
LayerCount: 2
Fore
SplineSet
26 328 m 1,0,-1
 26 418 l 1,1,-1
 160 416 l 1,2,-1
 17 714 l 1,3,-1
 107 714 l 1,4,-1
 215 442 l 1,5,6
 209 596 209 596 209 720 c 1,7,-1
 297 720 l 1,8,-1
 297 443 l 1,9,-1
 405 714 l 1,10,-1
 491 714 l 1,11,-1
 353 418 l 1,12,-1
 488 420 l 1,13,-1
 488 330 l 1,14,-1
 348 330 l 1,15,-1
 505 0 l 1,16,-1
 413 0 l 1,17,-1
 297 268 l 1,18,-1
 297 0 l 1,19,-1
 209 0 l 1,20,-1
 210 270 l 1,21,-1
 91 0 l 1,22,-1
 5 0 l 1,23,-1
 158 330 l 1,24,-1
 26 328 l 1,0,-1
EndSplineSet
Validated: 1
EndChar

StartChar: comma
Encoding: 123 44 122
Width: 279
Flags: W
LayerCount: 2
Fore
SplineSet
186 89 m 1,0,-1
 186 0 l 1,1,-1
 171 -41 l 1,2,-1
 140 -80 l 1,3,-1
 94 -80 l 1,4,-1
 125 -41 l 1,5,-1
 140 0 l 1,6,-1
 93 0 l 1,7,-1
 93 90 l 1,8,-1
 186 89 l 1,0,-1
EndSplineSet
Validated: 1
EndChar
